<svg width="12" height="12" viewBox="0 0 12 12" fill="none" xmlns="http://www.w3.org/2000/svg">
<path d="M5.31985 2.53988C5.24727 2.4732 5.15135 2.43778 5.05285 2.44128C4.95435 2.44478 4.86118 2.48692 4.79351 2.55858C4.72584 2.63024 4.68911 2.72566 4.69125 2.82421C4.6934 2.92275 4.73425 3.01648 4.80498 3.08513L7.89123 6L4.80498 8.91488C4.73425 8.98353 4.6934 9.07726 4.69125 9.1758C4.68911 9.27434 4.72584 9.36976 4.79351 9.44143C4.86118 9.51309 4.95435 9.55523 5.05285 9.55873C5.15135 9.56223 5.24727 9.52681 5.31985 9.46013L8.69485 6.27263C8.73194 6.23756 8.76148 6.1953 8.78167 6.14842C8.80187 6.10155 8.81228 6.05104 8.81228 6C8.81228 5.94896 8.80187 5.89846 8.78167 5.85158C8.76148 5.80471 8.73194 5.76244 8.69485 5.72738L5.31985 2.53988Z" fill="#1E40AF"/>
<path d="M6 0C4.39744 0 2.89069 0.624187 1.75762 1.75744C0.624187 2.89069 0 4.39744 0 6C0 7.60256 0.624375 9.10931 1.75762 10.2424C2.89069 11.3758 4.39744 12 6 12C7.60256 12 9.10931 11.3758 10.2424 10.2426C11.3758 9.10931 12 7.60256 12 6C12 4.39744 11.3756 2.89069 10.2424 1.75762C9.10931 0.624187 7.60256 0 6 0ZM9.71194 9.71212C8.72044 10.7038 7.40231 11.25 6 11.25C4.59769 11.25 3.27956 10.7038 2.28787 9.71212C1.29619 8.72062 0.75 7.40231 0.75 6C0.75 4.59769 1.29619 3.27938 2.28806 2.28787C3.27956 1.29619 4.59769 0.75 6 0.75C7.40231 0.75 8.72044 1.29619 9.71212 2.28787C10.7038 3.27938 11.25 4.59769 11.25 6C11.25 7.40231 10.7038 8.72062 9.71194 9.71212Z" fill="#1E40AF"/>
</svg>
