<svg width="24" height="24" viewBox="0 0 24 24" fill="none" xmlns="http://www.w3.org/2000/svg">
<path d="M14.7555 11.4885C14.7465 11.481 14.7345 11.478 14.7255 11.4705L8.94 6.23399C8.6145 5.94149 8.0865 5.94149 7.761 6.23399C7.758 6.23699 7.7565 6.23999 7.755 6.24299C7.67618 6.30807 7.61253 6.38957 7.56848 6.48181C7.52444 6.57404 7.50107 6.67478 7.5 6.77699V17.2515C7.50168 17.3556 7.5262 17.458 7.57181 17.5516C7.61743 17.6452 7.68304 17.7276 7.764 17.793L7.761 17.796C7.92478 17.9375 8.13403 18.0154 8.3505 18.0154C8.56697 18.0154 8.77622 17.9375 8.94 17.796L14.7555 12.5475C14.8321 12.4822 14.8936 12.401 14.9358 12.3096C14.9779 12.2181 14.9998 12.1187 14.9998 12.018C14.9998 11.9173 14.9779 11.8178 14.9358 11.7264C14.8936 11.635 14.8321 11.5538 14.7555 11.4885Z" fill="black" fill-opacity="0.77"/>
</svg>
