<svg width="24" height="22" viewBox="0 0 24 22" fill="none" xmlns="http://www.w3.org/2000/svg">
<path d="M13.4099 11L17.7099 7.0675C17.8982 6.89489 18.004 6.66078 18.004 6.41667C18.004 6.17256 17.8982 5.93845 17.7099 5.76583C17.5216 5.59322 17.2662 5.49625 16.9999 5.49625C16.7336 5.49625 16.4782 5.59322 16.2899 5.76583L11.9999 9.7075L7.70994 5.76583C7.52164 5.59322 7.26624 5.49625 6.99994 5.49625C6.73364 5.49625 6.47824 5.59322 6.28994 5.76583C6.10164 5.93845 5.99585 6.17256 5.99585 6.41667C5.99585 6.66078 6.10164 6.89489 6.28994 7.0675L10.5899 11L6.28994 14.9325C6.19621 15.0177 6.12182 15.1191 6.07105 15.2308C6.02028 15.3425 5.99414 15.4623 5.99414 15.5833C5.99414 15.7043 6.02028 15.8242 6.07105 15.9359C6.12182 16.0476 6.19621 16.149 6.28994 16.2342C6.3829 16.3201 6.4935 16.3883 6.61536 16.4348C6.73722 16.4814 6.86793 16.5053 6.99994 16.5053C7.13195 16.5053 7.26266 16.4814 7.38452 16.4348C7.50638 16.3883 7.61698 16.3201 7.70994 16.2342L11.9999 12.2925L16.2899 16.2342C16.3829 16.3201 16.4935 16.3883 16.6154 16.4348C16.7372 16.4814 16.8679 16.5053 16.9999 16.5053C17.132 16.5053 17.2627 16.4814 17.3845 16.4348C17.5064 16.3883 17.617 16.3201 17.7099 16.2342C17.8037 16.149 17.8781 16.0476 17.9288 15.9359C17.9796 15.8242 18.0057 15.7043 18.0057 15.5833C18.0057 15.4623 17.9796 15.3425 17.9288 15.2308C17.8781 15.1191 17.8037 15.0177 17.7099 14.9325L13.4099 11Z" fill="#8D8D8D"/>
</svg>
