<svg width="24" height="19" viewBox="0 0 24 19" fill="none" xmlns="http://www.w3.org/2000/svg">
<path d="M23.9478 4.25217L21.1565 13.0435C20.9478 13.6696 20.4 14.087 19.7478 14.087H8.97391C8.34783 14.087 7.74783 13.6957 7.53913 13.1217L3.41739 2.08696H1.04348C0.469565 2.08696 0 1.61739 0 1.04348C0 0.469565 0.469565 0 1.04348 0H4.14783C4.5913 0 4.98261 0.286956 5.13913 0.704348L9.3913 12H19.3043L21.5217 4.95652H9.23478C8.66087 4.95652 8.1913 4.48696 8.1913 3.91304C8.1913 3.33913 8.66087 2.86957 9.23478 2.86957H22.9565C23.2957 2.86957 23.6087 3.05217 23.7913 3.31304C24 3.57391 24.0522 3.93913 23.9478 4.25217ZM9.49565 15.4696C9.05217 15.4696 8.6087 15.6522 8.29565 15.9652C7.98261 16.2783 7.8 16.7217 7.8 17.1652C7.8 17.6087 7.98261 18.0522 8.29565 18.3652C8.6087 18.6783 9.05217 18.8609 9.49565 18.8609C9.93913 18.8609 10.3826 18.6783 10.6957 18.3652C11.0087 18.0522 11.1913 17.6087 11.1913 17.1652C11.1913 16.7217 11.0087 16.2783 10.6957 15.9652C10.3826 15.6522 9.93913 15.4696 9.49565 15.4696ZM18.8609 15.4696C18.4174 15.4696 17.9739 15.6522 17.6609 15.9652C17.3478 16.2783 17.1652 16.7217 17.1652 17.1652C17.1652 17.6087 17.3478 18.0522 17.6609 18.3652C17.9739 18.6783 18.4174 18.8609 18.8609 18.8609C19.3043 18.8609 19.7478 18.6783 20.0609 18.3652C20.3739 18.0522 20.5565 17.6087 20.5565 17.1652C20.5565 16.7217 20.3739 16.2783 20.0609 15.9652C19.7478 15.6522 19.3043 15.4696 18.8609 15.4696Z" fill="#1E40AF"/>
</svg>
