<svg width="18" height="18" viewBox="0 0 18 18" fill="none" xmlns="http://www.w3.org/2000/svg">
<path d="M1.125 3.375C1.125 2.13236 2.13236 1.125 3.375 1.125H14.625C15.8676 1.125 16.875 2.13236 16.875 3.375V14.625C16.875 15.8676 15.8676 16.875 14.625 16.875H3.375C2.13236 16.875 1.125 15.8676 1.125 14.625V3.375Z" fill="#00D26A"/>
<path d="M7.44862 12.9375C7.23307 12.9375 7.01758 12.8568 6.85294 12.6952L3.62168 9.52189C3.29277 9.19884 3.29277 8.67487 3.62168 8.35183C3.9506 8.02884 4.48417 8.02884 4.81308 8.35183L7.44862 10.9401L13.1869 5.30476C13.5158 4.98175 14.0494 4.98175 14.3783 5.30476C14.7072 5.62775 14.7072 6.15178 14.3783 6.47477L8.04431 12.6952C7.88006 12.8568 7.66417 12.9375 7.44862 12.9375Z" fill="#F4F4F4"/>
</svg>
