<svg width="44" height="44" viewBox="0 0 44 44" fill="none" xmlns="http://www.w3.org/2000/svg">
<path d="M39.1875 8.25H4.8125C4.26567 8.2506 3.74142 8.46809 3.35475 8.85475C2.96809 9.24142 2.7506 9.76567 2.75 10.3125V33.6875C2.7506 34.2343 2.96808 34.7586 3.35475 35.1453C3.74141 35.5319 4.26567 35.7494 4.8125 35.75H39.1875C39.7343 35.7494 40.2586 35.5319 40.6453 35.1453C41.0319 34.7586 41.2494 34.2343 41.25 33.6875V10.3125C41.2494 9.76567 41.0319 9.24142 40.6452 8.85475C40.2586 8.46809 39.7343 8.2506 39.1875 8.25ZM4.125 10.3125C4.12523 10.1302 4.19774 9.9555 4.32662 9.82662C4.4555 9.69774 4.63023 9.62523 4.8125 9.625H39.1875C39.3698 9.62523 39.5445 9.69774 39.6734 9.82662C39.8023 9.9555 39.8748 10.1302 39.875 10.3125V12.375H4.125V10.3125ZM39.875 33.6875C39.8748 33.8698 39.8023 34.0445 39.6734 34.1734C39.5445 34.3023 39.3698 34.3748 39.1875 34.375H4.8125C4.63023 34.3748 4.4555 34.3023 4.32662 34.1734C4.19774 34.0445 4.12523 33.8698 4.125 33.6875V13.75H39.875V33.6875Z" fill="#1E40AF"/>
<path d="M37.8192 10.3125H37.8125C37.6296 10.3134 37.4544 10.3868 37.3256 10.5166C37.1967 10.6465 37.1245 10.8221 37.125 11.0051C37.1254 11.188 37.1984 11.3633 37.3279 11.4925C37.4575 11.6217 37.6329 11.6942 37.8159 11.6942C37.9988 11.6942 38.1743 11.6217 38.3038 11.4925C38.4333 11.3633 38.5063 11.188 38.5067 11.0051C38.5072 10.8221 38.4351 10.6465 38.3062 10.5166C38.1773 10.3868 38.0022 10.3134 37.8192 10.3125ZM35.0625 10.3125H35.0558C34.8728 10.3134 34.6977 10.3868 34.5688 10.5166C34.4399 10.6465 34.3678 10.8221 34.3683 11.0051C34.3687 11.188 34.4417 11.3633 34.5712 11.4925C34.7007 11.6217 34.8762 11.6942 35.0591 11.6942C35.2421 11.6942 35.4175 11.6217 35.5471 11.4925C35.6766 11.3633 35.7496 11.188 35.75 11.0051C35.7505 10.8221 35.6783 10.6465 35.5494 10.5166C35.4206 10.3868 35.2454 10.3134 35.0625 10.3125ZM32.3159 10.3125H32.3091C32.1262 10.3134 31.9511 10.3868 31.8222 10.5166C31.6933 10.6465 31.6212 10.8221 31.6216 11.0051C31.6221 11.188 31.6951 11.3633 31.8246 11.4925C31.9541 11.6217 32.1296 11.6942 32.3125 11.6942C32.4954 11.6942 32.6709 11.6217 32.8004 11.4925C32.9299 11.3633 33.0029 11.188 33.0034 11.0051C33.0038 10.8221 32.9317 10.6465 32.8028 10.5166C32.6739 10.3868 32.4988 10.3134 32.3159 10.3125ZM6.1875 16.5H11C11.1823 16.5 11.3572 16.4276 11.4861 16.2986C11.6151 16.1697 11.6875 15.9948 11.6875 15.8125C11.6875 15.6302 11.6151 15.4553 11.4861 15.3264C11.3572 15.1974 11.1823 15.125 11 15.125H6.1875C6.00516 15.125 5.8303 15.1974 5.70136 15.3264C5.57243 15.4553 5.5 15.6302 5.5 15.8125C5.5 15.9948 5.57243 16.1697 5.70136 16.2986C5.8303 16.4276 6.00516 16.5 6.1875 16.5ZM6.1875 19.25H11C11.1823 19.25 11.3572 19.1776 11.4861 19.0486C11.6151 18.9197 11.6875 18.7448 11.6875 18.5625C11.6875 18.3802 11.6151 18.2053 11.4861 18.0764C11.3572 17.9474 11.1823 17.875 11 17.875H6.1875C6.00516 17.875 5.8303 17.9474 5.70136 18.0764C5.57243 18.2053 5.5 18.3802 5.5 18.5625C5.5 18.7448 5.57243 18.9197 5.70136 19.0486C5.8303 19.1776 6.00516 19.25 6.1875 19.25ZM6.1875 22H11C11.1823 22 11.3572 21.9276 11.4861 21.7986C11.6151 21.6697 11.6875 21.4948 11.6875 21.3125C11.6875 21.1302 11.6151 20.9553 11.4861 20.8264C11.3572 20.6974 11.1823 20.625 11 20.625H6.1875C6.00516 20.625 5.8303 20.6974 5.70136 20.8264C5.57243 20.9553 5.5 21.1302 5.5 21.3125C5.5 21.4948 5.57243 21.6697 5.70136 21.7986C5.8303 21.9276 6.00516 22 6.1875 22ZM6.1875 24.75H11C11.1823 24.75 11.3572 24.6776 11.4861 24.5486C11.6151 24.4197 11.6875 24.2448 11.6875 24.0625C11.6875 23.8802 11.6151 23.7053 11.4861 23.5764C11.3572 23.4474 11.1823 23.375 11 23.375H6.1875C6.00516 23.375 5.8303 23.4474 5.70136 23.5764C5.57243 23.7053 5.5 23.8802 5.5 24.0625C5.5 24.2448 5.57243 24.4197 5.70136 24.5486C5.8303 24.6776 6.00516 24.75 6.1875 24.75ZM26.8125 23.375H32.8754C32.9762 23.3751 33.0758 23.3529 33.1672 23.3102C33.2585 23.2674 33.3393 23.2051 33.4038 23.1276C33.4683 23.0502 33.515 22.9595 33.5405 22.8619C33.5661 22.7644 33.5698 22.6624 33.5515 22.5633C33.2624 21.0125 32.5331 19.5777 31.4507 18.4301L32.055 17.1875H35.0625C35.2448 17.1875 35.4197 17.1151 35.5486 16.9861C35.6776 16.8572 35.75 16.6823 35.75 16.5C35.75 16.3177 35.6776 16.1428 35.5486 16.0139C35.4197 15.8849 35.2448 15.8125 35.0625 15.8125H31.625C31.496 15.8125 31.3697 15.8487 31.2603 15.9171C31.151 15.9855 31.0631 16.0833 31.0067 16.1992L30.388 17.471C29.3717 16.702 28.1899 16.1806 26.9367 15.9485C26.8376 15.9302 26.7356 15.934 26.6381 15.9595C26.5406 15.985 26.4498 16.0317 26.3724 16.0962C26.2949 16.1608 26.2326 16.2415 26.1898 16.3328C26.1471 16.4242 26.1249 16.5238 26.125 16.6246V22.6875C26.125 22.8698 26.1975 23.0447 26.3264 23.1736C26.4553 23.3025 26.6302 23.375 26.8125 23.375ZM27.5 17.5024C28.5547 17.8378 29.5136 18.4212 30.2962 19.2038C31.0788 19.9864 31.6622 20.9453 31.9976 22H27.5V17.5024ZM37.8125 17.1875H37.8192C38.0022 17.1866 38.1773 17.1132 38.3062 16.9834C38.4351 16.8535 38.5072 16.6779 38.5067 16.4949C38.5063 16.312 38.4333 16.1367 38.3038 16.0075C38.1743 15.8783 37.9988 15.8058 37.8159 15.8058C37.6329 15.8058 37.4575 15.8783 37.3279 16.0075C37.1984 16.1367 37.1254 16.312 37.125 16.4949C37.1245 16.6779 37.1967 16.8535 37.3256 16.9834C37.4544 17.1132 37.6296 17.1866 37.8125 17.1875Z" fill="#1E40AF"/>
<path d="M37.8126 17.875H35.7501C35.5677 17.875 35.3929 17.9474 35.2639 18.0764C35.135 18.2053 35.0626 18.3802 35.0626 18.5625C35.0626 18.7448 35.135 18.9197 35.2639 19.0486C35.3929 19.1776 35.5677 19.25 35.7501 19.25H37.8126C37.9949 19.25 38.1698 19.1776 38.2987 19.0486C38.4276 18.9197 38.5001 18.7448 38.5001 18.5625C38.5001 18.3802 38.4276 18.2053 38.2987 18.0764C38.1698 17.9474 37.9949 17.875 37.8126 17.875ZM18.9546 29.2617L18.1393 30.9375H15.1318C14.9495 30.9375 14.7746 31.0099 14.6457 31.1389C14.5167 31.2678 14.4443 31.4427 14.4443 31.625C14.4443 31.8073 14.5167 31.9822 14.6457 32.1111C14.7746 32.2401 14.9495 32.3125 15.1318 32.3125H18.5693C18.6983 32.3125 18.8246 32.2763 18.934 32.2079C19.0433 32.1395 19.1312 32.0417 19.1876 31.9258L20.0019 30.2526C21.0955 31.2174 22.4256 31.8744 23.8562 32.1567C25.2869 32.439 26.7669 32.3364 28.145 31.8593C29.523 31.3822 30.7496 30.5478 31.6996 29.4414C32.6495 28.3349 33.2886 26.9961 33.5516 25.5617C33.5699 25.4626 33.5661 25.3606 33.5406 25.2631C33.515 25.1656 33.4684 25.0748 33.4038 24.9974C33.3393 24.9199 33.2585 24.8576 33.1672 24.8148C33.0759 24.7721 32.9763 24.7499 32.8755 24.75H24.7501V16.6246C24.7501 16.5238 24.728 16.4242 24.6852 16.3328C24.6425 16.2415 24.5802 16.1607 24.5027 16.0962C24.4252 16.0317 24.3345 15.985 24.237 15.9595C24.1394 15.934 24.0375 15.9302 23.9383 15.9485C22.5362 16.2061 21.2248 16.8231 20.1325 17.7392C19.0401 18.6553 18.2042 19.8392 17.7063 21.1751C17.2085 22.511 17.0657 23.9532 17.2921 25.3607C17.5184 26.7683 18.1061 28.093 18.9977 29.2055C18.9823 29.2234 18.9679 29.2422 18.9546 29.2617ZM23.3751 17.5013V25.4375C23.3751 25.6198 23.4475 25.7947 23.5764 25.9236C23.7054 26.0525 23.8802 26.125 24.0626 26.125H31.9987C31.6439 27.2525 31.0045 28.2695 30.1421 29.0779C29.2798 29.8863 28.2236 30.4587 27.0756 30.74C25.9275 31.0212 24.7263 31.0018 23.588 30.6836C22.4496 30.3654 21.4125 29.7592 20.5767 28.9234C19.7409 28.0876 19.1346 27.0505 18.8164 25.9121C18.4982 24.7737 18.4788 23.5726 18.7601 22.4245C19.0414 21.2765 19.6138 20.2203 20.4222 19.3579C21.2306 18.4956 22.2476 17.8561 23.3751 17.5013ZM12.3818 32.3125C12.5641 32.3125 12.739 32.2401 12.8679 32.1111C12.9969 31.9822 13.0693 31.8073 13.0693 31.625C13.0693 31.4427 12.9969 31.2678 12.8679 31.1389C12.739 31.0099 12.5641 30.9375 12.3818 30.9375H12.3751C12.1927 30.9384 12.0182 31.0117 11.8899 31.1412C11.7616 31.2708 11.69 31.446 11.6909 31.6284C11.6918 31.8107 11.7651 31.9852 11.8947 32.1135C12.0242 32.2418 12.1995 32.3134 12.3818 32.3125Z" fill="#1E40AF"/>
<path d="M12.3818 30.25H14.4443C14.6267 30.25 14.8015 30.1776 14.9305 30.0486C15.0594 29.9197 15.1318 29.7448 15.1318 29.5625C15.1318 29.3802 15.0594 29.2053 14.9305 29.0764C14.8015 28.9474 14.6267 28.875 14.4443 28.875H12.3818C12.1995 28.875 12.0246 28.9474 11.8957 29.0764C11.7668 29.2053 11.6943 29.3802 11.6943 29.5625C11.6943 29.7448 11.7668 29.9197 11.8957 30.0486C12.0246 30.1776 12.1995 30.25 12.3818 30.25Z" fill="#1E40AF"/>
</svg>
