<svg width="20" height="15" viewBox="0 0 20 15" fill="none" xmlns="http://www.w3.org/2000/svg">
<path d="M0 1.76297V1.25C0 0.918479 0.131696 0.600537 0.366117 0.366117C0.600537 0.131696 0.918479 0 1.25 0L18.75 0C19.0815 0 19.3995 0.131696 19.6339 0.366117C19.8683 0.600537 20 0.918479 20 1.25V1.76297L10 8.01297L0 1.76297ZM10.3313 9.28016C10.2319 9.34217 10.1171 9.37505 10 9.37505C9.88288 9.37505 9.76811 9.34217 9.66875 9.28016L0 3.23703V13.75C0 14.0815 0.131696 14.3995 0.366117 14.6339C0.600537 14.8683 0.918479 15 1.25 15H18.75C19.0815 15 19.3995 14.8683 19.6339 14.6339C19.8683 14.3995 20 14.0815 20 13.75V3.23703L10.3313 9.28016Z" fill="#1E40AF"/>
</svg>
