<svg width="10" height="10" viewBox="0 0 10 10" fill="none" xmlns="http://www.w3.org/2000/svg">
<g clip-path="url(#clip0_123_322)">
<path d="M3.22562 8.97094C3.28422 9.02955 3.36369 9.06248 3.44656 9.0625H6.55312C6.63594 9.0625 6.71562 9.02969 6.77406 8.97094L8.97062 6.77437C8.99976 6.74543 9.02287 6.71101 9.03864 6.67309C9.05441 6.63517 9.06252 6.5945 9.0625 6.55344V3.44688C9.06254 3.40583 9.05447 3.36519 9.03876 3.32727C9.02305 3.28936 9 3.25492 8.97094 3.22594L6.77437 1.02938C6.74543 1.00024 6.71101 0.977127 6.67309 0.961358C6.63517 0.94559 6.5945 0.937482 6.55344 0.9375H3.44687C3.40583 0.937458 3.36519 0.945525 3.32727 0.961238C3.28936 0.976951 3.25492 1 3.22594 1.02906L1.02938 3.22563C1.00024 3.25457 0.977126 3.28899 0.961358 3.32691C0.94559 3.36483 0.937481 3.4055 0.9375 3.44656V6.55312C0.9375 6.63594 0.970313 6.71562 1.02906 6.77406L3.22562 8.97094ZM5 7.8125C4.87564 7.81246 4.75639 7.76302 4.66848 7.67505C4.58057 7.58708 4.53121 7.4678 4.53125 7.34344C4.53129 7.21908 4.58073 7.09982 4.6687 7.01192C4.75667 6.92401 4.87595 6.87465 5.00031 6.87469C5.06189 6.87471 5.12286 6.88686 5.17974 6.91044C5.23663 6.93402 5.28831 6.96858 5.33183 7.01214C5.37536 7.05569 5.40988 7.1074 5.43343 7.1643C5.45697 7.22119 5.46908 7.28217 5.46906 7.34375C5.46904 7.40533 5.45689 7.4663 5.43331 7.52318C5.40973 7.58006 5.37517 7.63174 5.33161 7.67527C5.28806 7.7188 5.23635 7.75332 5.17945 7.77687C5.12256 7.80041 5.06158 7.81252 5 7.8125ZM5 2.5C5.07955 2.49998 5.15824 2.51647 5.23109 2.54843C5.30394 2.58038 5.36936 2.62711 5.42323 2.68564C5.4771 2.74418 5.51823 2.81326 5.54403 2.8885C5.56983 2.96375 5.57974 3.04354 5.57312 3.12281L5.32438 6.10656C5.32116 6.14564 5.30337 6.18207 5.27455 6.20864C5.24572 6.23521 5.20796 6.24998 5.16875 6.25H4.83125C4.79209 6.24998 4.75437 6.23526 4.72555 6.20876C4.69673 6.18225 4.67891 6.14589 4.67562 6.10687L4.42688 3.12313C4.42021 3.04383 4.43009 2.96401 4.45587 2.88872C4.48165 2.81343 4.52277 2.74432 4.57665 2.68575C4.63052 2.62718 4.69596 2.58043 4.76883 2.54845C4.84171 2.51648 4.92042 2.49998 5 2.5Z" fill="#FD0D11"/>
</g>
<defs>
<clipPath id="clip0_123_322">
<rect width="10" height="10" fill="white"/>
</clipPath>
</defs>
</svg>
