<svg width="15" height="21" viewBox="0 0 15 21" fill="none" xmlns="http://www.w3.org/2000/svg">
<path fill-rule="evenodd" clip-rule="evenodd" d="M7.5 0C3.36136 0 0 3.38898 0 7.56307C0 10.033 1.1284 12.5905 2.50909 14.762C4.52045 17.9325 7.03637 20.2725 7.03637 20.2725C7.29887 20.5156 7.70113 20.5152 7.96363 20.2711C7.96363 20.2711 10.4796 17.9209 12.4909 14.7488C13.8716 12.5758 15 10.0203 15 7.56307C15 3.38898 11.6386 0 7.5 0ZM7.5 1.37523C10.8852 1.37523 13.6364 4.14784 13.6364 7.56307C13.6364 9.77148 12.583 12.0545 11.3455 14.0076C9.94433 16.2147 8.2875 18.0041 7.5 18.8066C6.70909 18.0072 5.05567 16.2245 3.65454 14.0206C2.41704 12.0685 1.36364 9.78307 1.36364 7.56307C1.36364 4.14784 4.11477 1.37523 7.5 1.37523ZM7.5 4.43182C5.80568 4.43182 4.43182 5.8067 4.43182 7.5C4.43182 9.1933 5.80568 10.5682 7.5 10.5682C9.19432 10.5682 10.5682 9.1933 10.5682 7.5C10.5682 5.8067 9.19432 4.43182 7.5 4.43182ZM7.5 5.79545C8.44091 5.79545 9.20455 6.55909 9.20455 7.5C9.20455 8.44091 8.44091 9.20455 7.5 9.20455C6.55909 9.20455 5.79545 8.44091 5.79545 7.5C5.79545 6.55909 6.55909 5.79545 7.5 5.79545Z" fill="#1E40AF"/>
</svg>
