<svg width="44" height="50" viewBox="0 0 44 50" fill="none" xmlns="http://www.w3.org/2000/svg">
<path d="M34.8332 14.5833C34.8332 12.2917 33.1832 10.4167 31.1665 10.4167H25.6665V14.5833H31.1665V20.1042L24.7865 29.1667H18.3332V18.75H10.9998C6.94817 18.75 3.6665 22.4792 3.6665 27.0833V33.3333H7.33317C7.33317 36.7917 9.78984 39.5833 12.8332 39.5833C15.8765 39.5833 18.3332 36.7917 18.3332 33.3333H26.5465L34.8332 21.5625V14.5833ZM12.8332 35.4167C11.8248 35.4167 10.9998 34.4792 10.9998 33.3333H14.6665C14.6665 34.4792 13.8415 35.4167 12.8332 35.4167Z" fill="#141313" fill-opacity="0.8"/>
<path d="M9.1665 12.5H18.3332V16.6667H9.1665V12.5ZM34.8332 27.0833C31.7898 27.0833 29.3332 29.875 29.3332 33.3333C29.3332 36.7917 31.7898 39.5833 34.8332 39.5833C37.8765 39.5833 40.3332 36.7917 40.3332 33.3333C40.3332 29.875 37.8765 27.0833 34.8332 27.0833ZM34.8332 35.4167C33.8248 35.4167 32.9998 34.4792 32.9998 33.3333C32.9998 32.1875 33.8248 31.25 34.8332 31.25C35.8415 31.25 36.6665 32.1875 36.6665 33.3333C36.6665 34.4792 35.8415 35.4167 34.8332 35.4167Z" fill="#141313" fill-opacity="0.8"/>
</svg>
