<svg width="44" height="44" viewBox="0 0 44 44" fill="none" xmlns="http://www.w3.org/2000/svg">
<path d="M12.8331 25.6667C12.0328 25.6679 11.2425 25.8437 10.5171 26.1819C9.79183 26.5201 9.14905 27.0124 8.63367 27.6247C8.11829 28.2369 7.74273 28.9542 7.53319 29.7266C7.32365 30.499 7.28518 31.3077 7.42047 32.0965C7.55577 32.8853 7.86156 33.635 8.31651 34.2934C8.77146 34.9518 9.36461 35.5029 10.0546 35.9084C10.7445 36.3139 11.5146 36.5639 12.3112 36.6411C13.1077 36.7182 13.9115 36.6206 14.6664 36.355" stroke="black" stroke-width="1.5" stroke-linecap="round" stroke-linejoin="round"/>
<path d="M7.81734 28.6092C6.7202 28.081 5.77186 27.2879 5.0579 26.3015C4.34394 25.3151 3.88683 24.1665 3.72783 22.9593C3.56883 21.752 3.71294 20.5242 4.14716 19.3866C4.58138 18.249 5.29204 17.2374 6.215 16.4432M6.27 16.2947C5.66875 15.395 5.40522 14.3115 5.52608 13.2362C5.64693 12.1608 6.14437 11.1629 6.93033 10.4191C7.71629 9.6753 8.74008 9.23357 9.82045 9.17211C10.9008 9.11066 11.9681 9.43345 12.8333 10.0833M13.2697 10.2025C12.9772 9.58109 12.8281 8.90188 12.8335 8.2151C12.8388 7.52832 12.9984 6.85152 13.3005 6.23473C13.6026 5.61794 14.0395 5.07692 14.5788 4.65167C15.1181 4.22642 15.7461 3.92781 16.4163 3.77791C17.0866 3.62802 17.7819 3.63066 18.451 3.78566C19.1201 3.94066 19.7458 4.24404 20.2819 4.67338C20.8179 5.10273 21.2506 5.64705 21.548 6.26613C21.8454 6.88521 21.9999 7.5632 22 8.25V36.6667C22 37.6391 21.6137 38.5718 20.9261 39.2594C20.2384 39.947 19.3058 40.3333 18.3333 40.3333C17.3609 40.3333 16.4282 39.947 15.7406 39.2594C15.053 38.5718 14.6667 37.6391 14.6667 36.6667M22 12.8333C22 14.292 22.5795 15.691 23.6109 16.7224C24.6424 17.7539 26.0413 18.3333 27.5 18.3333M31.1667 25.6667C31.9669 25.6679 32.7573 25.8437 33.4826 26.1819C34.208 26.52 34.8507 27.0124 35.3661 27.6247C35.8815 28.2369 36.2571 28.9542 36.4666 29.7266C36.6761 30.4989 36.7146 31.3077 36.5793 32.0965C36.444 32.8852 36.1382 33.635 35.6833 34.2934C35.2283 34.9517 34.6352 35.5029 33.9452 35.9084C33.2553 36.3139 32.4852 36.5639 31.6886 36.6411C30.8921 36.7182 30.0883 36.6206 29.3333 36.355" stroke="black" stroke-width="1.5" stroke-linecap="round" stroke-linejoin="round"/>
<path d="M36.1827 28.6092C37.2798 28.081 38.2281 27.2879 38.9421 26.3015C39.6561 25.3151 40.1132 24.1665 40.2722 22.9593C40.4312 21.752 40.2871 20.5242 39.8528 19.3866C39.4186 18.249 38.708 17.2374 37.785 16.4432M37.73 16.2947C38.3313 15.395 38.5948 14.3115 38.4739 13.2362C38.3531 12.1608 37.8556 11.1629 37.0697 10.4191C36.2837 9.6753 35.2599 9.23357 34.1796 9.17211C33.0992 9.11066 32.0319 9.43345 31.1667 10.0833M22 8.25C22.0001 7.5632 22.1546 6.88521 22.452 6.26613C22.7494 5.64705 23.1821 5.10273 23.7181 4.67338C24.2542 4.24404 24.8799 3.94066 25.549 3.78566C26.2181 3.63066 26.9134 3.62802 27.5837 3.77791C28.2539 3.92781 28.8819 4.22642 29.4212 4.65167C29.9605 5.07692 30.3974 5.61794 30.6995 6.23473C31.0016 6.85152 31.1612 7.52832 31.1665 8.2151C31.1719 8.90188 31.0228 9.58109 30.7303 10.2025M29.3333 36.6667C29.3333 37.6391 28.947 38.5718 28.2594 39.2594C27.5718 39.947 26.6391 40.3333 25.6667 40.3333C24.6942 40.3333 23.7616 39.947 23.0739 39.2594C22.3863 38.5718 22 37.6391 22 36.6667" stroke="black" stroke-width="1.5" stroke-linecap="round" stroke-linejoin="round"/>
</svg>
