<svg width="97" height="23" viewBox="0 0 97 23" fill="none" xmlns="http://www.w3.org/2000/svg">
<path d="M9.78516 17.2344C8.60352 17.2148 7.39258 17.1855 6.15234 17.1465C4.92188 17.1074 3.71582 17.0195 2.53418 16.8828C2.39746 16.8633 2.24121 16.8486 2.06543 16.8389C1.89941 16.8193 1.74805 16.7852 1.61133 16.7363C1.32812 16.6289 1.10352 16.5117 0.9375 16.3848C0.78125 16.248 0.65918 16.0967 0.571289 15.9307C0.483398 15.7549 0.419922 15.5645 0.380859 15.3594C0.341797 15.1445 0.307617 14.9053 0.27832 14.6416C0.19043 13.958 0.12207 13.2744 0.0732422 12.5908C0.0244141 11.8975 0 11.2041 0 10.5107C0 10.3838 0 10.2324 0 10.0566C0.00976562 9.87109 0.0195312 9.68066 0.0292969 9.48535C0.0488281 9.29004 0.0732422 9.10449 0.102539 8.92871C0.131836 8.75293 0.170898 8.60645 0.219727 8.48926C0.454102 7.98145 0.795898 7.57617 1.24512 7.27344C1.7041 6.96094 2.20703 6.72168 2.75391 6.55566C3.30078 6.37988 3.8623 6.26758 4.43848 6.21875C5.02441 6.16016 5.56152 6.13086 6.0498 6.13086C7.09473 6.13086 8.13965 6.2334 9.18457 6.43848L9.30176 9.57324C8.30566 9.26074 7.27539 9.10449 6.21094 9.10449C6.01562 9.10449 5.75684 9.11426 5.43457 9.13379C5.1123 9.15332 4.78027 9.19238 4.43848 9.25098C4.10645 9.2998 3.79395 9.37793 3.50098 9.48535C3.20801 9.58301 3.00293 9.71973 2.88574 9.89551C2.82715 9.9834 2.77344 10.1055 2.72461 10.2617C2.68555 10.418 2.65137 10.584 2.62207 10.7598C2.60254 10.9258 2.58789 11.0918 2.57812 11.2578C2.56836 11.4238 2.56348 11.5605 2.56348 11.668C2.56348 11.8926 2.57812 12.1611 2.60742 12.4736C2.64648 12.7764 2.69043 13.0889 2.73926 13.4111C2.78809 13.7334 2.84668 14.041 2.91504 14.334C2.9834 14.627 3.05664 14.8662 3.13477 15.0518H5.72754L5.5957 12.2246C6.26953 12.2734 6.94336 12.2979 7.61719 12.2979C8.30078 12.2881 8.97949 12.2832 9.65332 12.2832C9.72168 13.1133 9.76074 13.9385 9.77051 14.7588C9.78027 15.5791 9.78516 16.4043 9.78516 17.2344ZM22.251 11.1992C22.251 11.2773 22.251 11.3555 22.251 11.4336C22.251 11.502 22.2461 11.5752 22.2363 11.6533C22.2266 11.79 22.2021 12.0146 22.1631 12.3271C22.124 12.6396 22.0703 12.9668 22.002 13.3086C21.9336 13.6406 21.8506 13.9482 21.7529 14.2314C21.6553 14.5146 21.5479 14.6953 21.4307 14.7734C21.3721 14.8125 21.1719 14.8467 20.8301 14.876C20.498 14.9053 20.0879 14.9346 19.5996 14.9639C19.1211 14.9932 18.5986 15.0176 18.0322 15.0371C17.4658 15.0566 16.9238 15.0762 16.4062 15.0957C15.8984 15.1055 15.4492 15.1152 15.0586 15.125C14.6777 15.1348 14.4238 15.1396 14.2969 15.1396C14.2383 15.1396 14.1357 15.1396 13.9893 15.1396C13.8525 15.1396 13.7061 15.1396 13.5498 15.1396C13.3936 15.1299 13.2471 15.1201 13.1104 15.1104C12.9736 15.1006 12.876 15.0859 12.8174 15.0664C12.6807 15.0176 12.5439 14.9395 12.4072 14.832C12.2705 14.7148 12.1436 14.5879 12.0264 14.4512C11.9092 14.3047 11.8018 14.1582 11.7041 14.0117C11.6162 13.8555 11.5527 13.709 11.5137 13.5723C11.4844 13.4648 11.46 13.3037 11.4404 13.0889C11.4209 12.8643 11.4062 12.6348 11.3965 12.4004C11.3867 12.1562 11.377 11.9219 11.3672 11.6973C11.3672 11.4727 11.3672 11.3018 11.3672 11.1846C11.3672 10.999 11.3721 10.7451 11.3818 10.4229C11.3916 10.0908 11.4209 9.75391 11.4697 9.41211C11.5186 9.07031 11.5869 8.75293 11.6748 8.45996C11.7725 8.15723 11.9092 7.94727 12.085 7.83008C12.1631 7.78125 12.3096 7.7373 12.5244 7.69824C12.7393 7.65918 12.9932 7.625 13.2861 7.5957C13.5791 7.56641 13.8916 7.54687 14.2236 7.53711C14.5557 7.51758 14.8779 7.50781 15.1904 7.50781C15.5127 7.49805 15.8105 7.49316 16.084 7.49316C16.3574 7.49316 16.5771 7.49805 16.7432 7.50781C16.8896 7.51758 17.0996 7.52734 17.373 7.53711C17.6465 7.53711 17.9492 7.54199 18.2812 7.55176C18.623 7.56152 18.9746 7.58105 19.3359 7.61035C19.6973 7.62988 20.0342 7.65918 20.3467 7.69824C20.6592 7.7373 20.9326 7.79102 21.167 7.85938C21.4111 7.91797 21.5723 7.99121 21.6504 8.0791C21.7773 8.21582 21.8799 8.4209 21.958 8.69434C22.0361 8.96777 22.0947 9.26074 22.1338 9.57324C22.1826 9.87598 22.2119 10.1787 22.2217 10.4814C22.2412 10.7744 22.251 11.0137 22.251 11.1992ZM19.1455 11.5068C19.1455 11.3896 19.1406 11.2529 19.1309 11.0967C19.1211 10.9404 19.1064 10.7842 19.0869 10.6279C19.0674 10.4619 19.0381 10.3057 18.999 10.1592C18.96 10.0029 18.9111 9.87598 18.8525 9.77832C18.7744 9.65137 18.623 9.55371 18.3984 9.48535C18.1738 9.41699 17.9248 9.36816 17.6514 9.33887C17.3877 9.2998 17.124 9.27539 16.8604 9.26562C16.6064 9.25586 16.416 9.25098 16.2891 9.25098C16.2207 9.25098 16.0986 9.25586 15.9229 9.26562C15.7471 9.26562 15.5615 9.27051 15.3662 9.28027C15.1807 9.29004 15.0049 9.30957 14.8389 9.33887C14.6729 9.3584 14.5654 9.38281 14.5166 9.41211C14.4287 9.4707 14.3604 9.56348 14.3115 9.69043C14.2627 9.80762 14.2236 9.93945 14.1943 10.0859C14.1748 10.2324 14.1602 10.3789 14.1504 10.5254C14.1504 10.6621 14.1504 10.7744 14.1504 10.8623C14.1504 10.9502 14.1553 11.1113 14.165 11.3457C14.1846 11.5703 14.2041 11.8145 14.2236 12.0781C14.2529 12.332 14.2871 12.5664 14.3262 12.7812C14.3652 12.9961 14.4141 13.1328 14.4727 13.1914C14.541 13.2695 14.668 13.333 14.8535 13.3818C15.0488 13.4307 15.2539 13.4746 15.4688 13.5137C15.6934 13.543 15.9082 13.5674 16.1133 13.5869C16.3184 13.5967 16.4648 13.6016 16.5527 13.6016C16.709 13.6016 16.8945 13.5967 17.1094 13.5869C17.3242 13.5771 17.5391 13.5527 17.7539 13.5137C17.9785 13.4746 18.1885 13.4209 18.3838 13.3525C18.5791 13.2842 18.7354 13.1914 18.8525 13.0742C18.9209 13.0059 18.9746 12.9033 19.0137 12.7666C19.0527 12.6299 19.082 12.4834 19.1016 12.3271C19.1211 12.1709 19.1309 12.0195 19.1309 11.873C19.1406 11.7168 19.1455 11.5947 19.1455 11.5068ZM33.6182 17.2344C32.4365 17.2148 31.2256 17.1855 29.9854 17.1465C28.7549 17.1074 27.5488 17.0195 26.3672 16.8828C26.2305 16.8633 26.0742 16.8486 25.8984 16.8389C25.7324 16.8193 25.5811 16.7852 25.4443 16.7363C25.1611 16.6289 24.9365 16.5117 24.7705 16.3848C24.6143 16.248 24.4922 16.0967 24.4043 15.9307C24.3164 15.7549 24.2529 15.5645 24.2139 15.3594C24.1748 15.1445 24.1406 14.9053 24.1113 14.6416C24.0234 13.958 23.9551 13.2744 23.9062 12.5908C23.8574 11.8975 23.833 11.2041 23.833 10.5107C23.833 10.3838 23.833 10.2324 23.833 10.0566C23.8428 9.87109 23.8525 9.68066 23.8623 9.48535C23.8818 9.29004 23.9062 9.10449 23.9355 8.92871C23.9648 8.75293 24.0039 8.60645 24.0527 8.48926C24.2871 7.98145 24.6289 7.57617 25.0781 7.27344C25.5371 6.96094 26.04 6.72168 26.5869 6.55566C27.1338 6.37988 27.6953 6.26758 28.2715 6.21875C28.8574 6.16016 29.3945 6.13086 29.8828 6.13086C30.9277 6.13086 31.9727 6.2334 33.0176 6.43848L33.1348 9.57324C32.1387 9.26074 31.1084 9.10449 30.0439 9.10449C29.8486 9.10449 29.5898 9.11426 29.2676 9.13379C28.9453 9.15332 28.6133 9.19238 28.2715 9.25098C27.9395 9.2998 27.627 9.37793 27.334 9.48535C27.041 9.58301 26.8359 9.71973 26.7188 9.89551C26.6602 9.9834 26.6064 10.1055 26.5576 10.2617C26.5186 10.418 26.4844 10.584 26.4551 10.7598C26.4355 10.9258 26.4209 11.0918 26.4111 11.2578C26.4014 11.4238 26.3965 11.5605 26.3965 11.668C26.3965 11.8926 26.4111 12.1611 26.4404 12.4736C26.4795 12.7764 26.5234 13.0889 26.5723 13.4111C26.6211 13.7334 26.6797 14.041 26.748 14.334C26.8164 14.627 26.8896 14.8662 26.9678 15.0518H29.5605L29.4287 12.2246C30.1025 12.2734 30.7764 12.2979 31.4502 12.2979C32.1338 12.2881 32.8125 12.2832 33.4863 12.2832C33.5547 13.1133 33.5938 13.9385 33.6035 14.7588C33.6133 15.5791 33.6182 16.4043 33.6182 17.2344ZM45.6592 10.3936C45.6592 11.2139 45.6299 12.0293 45.5713 12.8398C45.5127 13.6504 45.4541 14.4609 45.3955 15.2715C44.3018 15.3691 43.2129 15.4521 42.1289 15.5205C41.0449 15.5889 39.9561 15.623 38.8623 15.623C38.7646 15.623 38.584 15.623 38.3203 15.623C38.0566 15.6133 37.7783 15.6035 37.4854 15.5938C37.1924 15.5742 36.9141 15.5547 36.6504 15.5352C36.3867 15.5059 36.2109 15.4668 36.123 15.418C35.8008 15.2422 35.5762 15.0225 35.4492 14.7588C35.3223 14.4854 35.2588 14.1777 35.2588 13.8359C35.2588 13.7188 35.2637 13.5625 35.2734 13.3672C35.2832 13.1719 35.3027 12.9668 35.332 12.752C35.3613 12.5371 35.4004 12.3369 35.4492 12.1514C35.498 11.9658 35.5566 11.8291 35.625 11.7412C35.7129 11.624 35.9131 11.5264 36.2256 11.4482C36.5381 11.3604 36.9092 11.292 37.3389 11.2432C37.7783 11.1943 38.2471 11.1553 38.7451 11.126C39.2529 11.0967 39.7363 11.0771 40.1953 11.0674C40.6543 11.0479 41.0645 11.0381 41.4258 11.0381C41.7871 11.0381 42.0459 11.0381 42.2021 11.0381C42.2314 10.8232 42.2461 10.6133 42.2461 10.4082C42.2461 10.3887 42.2461 10.3398 42.2461 10.2617C42.2461 10.1738 42.2412 10.1201 42.2314 10.1006C42.2021 10.042 42.1094 9.99316 41.9531 9.9541C41.7969 9.91504 41.6016 9.88574 41.3672 9.86621C41.1426 9.84668 40.8936 9.83203 40.6201 9.82227C40.3564 9.80273 40.0977 9.79297 39.8438 9.79297C39.5898 9.79297 39.3652 9.79297 39.1699 9.79297C38.9746 9.79297 38.833 9.79297 38.7451 9.79297C38.1299 9.79297 37.5146 9.80762 36.8994 9.83691C36.2842 9.85645 35.6689 9.87598 35.0537 9.89551C35.0928 9.52441 35.1221 9.14844 35.1416 8.76758C35.1709 8.38672 35.1758 8.01074 35.1562 7.63965C35.8691 7.5127 36.582 7.4248 37.2949 7.37598C38.0176 7.31738 38.7451 7.28809 39.4775 7.28809C39.7412 7.28809 40.0293 7.29297 40.3418 7.30273C40.6543 7.30273 40.9668 7.3125 41.2793 7.33203C41.5918 7.3418 41.8994 7.36133 42.2021 7.39062C42.5146 7.41992 42.8027 7.45898 43.0664 7.50781C43.3398 7.55664 43.6084 7.64453 43.8721 7.77148C44.1455 7.89844 44.3994 8.05469 44.6338 8.24023C44.8682 8.42578 45.0732 8.64062 45.249 8.88477C45.4248 9.11914 45.5518 9.37305 45.6299 9.64648C45.6396 9.67578 45.6445 9.72461 45.6445 9.79297C45.6543 9.86133 45.6592 9.93945 45.6592 10.0273C45.6592 10.1055 45.6592 10.1787 45.6592 10.2471C45.6592 10.3154 45.6592 10.3643 45.6592 10.3936ZM42.3926 13.8359V11.9609C42.1094 11.9512 41.8262 11.9463 41.543 11.9463C41.2598 11.9365 40.9766 11.9316 40.6934 11.9316C40.6348 11.9316 40.4688 11.9365 40.1953 11.9463C39.9316 11.9463 39.6436 11.9561 39.3311 11.9756C39.0283 11.9951 38.75 12.0195 38.4961 12.0488C38.2422 12.0781 38.0957 12.1221 38.0566 12.1807C38.0078 12.2588 37.9736 12.3418 37.9541 12.4297C37.9443 12.5078 37.9395 12.5908 37.9395 12.6787C37.9395 12.7471 37.9443 12.8398 37.9541 12.957C37.9639 13.0742 37.9785 13.1963 37.998 13.3232C38.0273 13.4502 38.0566 13.5674 38.0859 13.6748C38.1152 13.7822 38.1543 13.8604 38.2031 13.9092C38.2422 13.958 38.3057 13.9971 38.3936 14.0264C38.4912 14.0459 38.5938 14.0654 38.7012 14.085C38.8086 14.0947 38.916 14.1045 39.0234 14.1143C39.1309 14.1143 39.2139 14.1143 39.2725 14.1143C39.5068 14.1143 39.7559 14.1045 40.0195 14.085C40.293 14.0654 40.5664 14.0459 40.8398 14.0264C41.123 13.9971 41.3965 13.9678 41.6602 13.9385C41.9238 13.8994 42.168 13.8652 42.3926 13.8359ZM50.3467 5.73535C50.2686 6.68262 50.1904 7.625 50.1123 8.5625C50.0439 9.5 49.9854 10.4424 49.9365 11.3896C49.8877 12.249 49.834 13.1035 49.7754 13.9531C49.7266 14.793 49.6777 15.6426 49.6289 16.502L47.3877 16.6191C47.3877 15.7305 47.3877 14.8516 47.3877 13.9824C47.3975 13.1035 47.3926 12.2197 47.373 11.3311C47.3535 10.4424 47.3145 9.56348 47.2559 8.69434C47.1973 7.81543 47.1387 6.93164 47.0801 6.04297L50.3467 5.73535ZM62.4316 11.1992C62.4316 11.2773 62.4316 11.3555 62.4316 11.4336C62.4316 11.502 62.4268 11.5752 62.417 11.6533C62.4072 11.79 62.3828 12.0146 62.3438 12.3271C62.3047 12.6396 62.251 12.9668 62.1826 13.3086C62.1143 13.6406 62.0312 13.9482 61.9336 14.2314C61.8359 14.5146 61.7285 14.6953 61.6113 14.7734C61.5527 14.8125 61.3525 14.8467 61.0107 14.876C60.6787 14.9053 60.2686 14.9346 59.7803 14.9639C59.3018 14.9932 58.7793 15.0176 58.2129 15.0371C57.6465 15.0566 57.1045 15.0762 56.5869 15.0957C56.0791 15.1055 55.6299 15.1152 55.2393 15.125C54.8584 15.1348 54.6045 15.1396 54.4775 15.1396C54.4189 15.1396 54.3164 15.1396 54.1699 15.1396C54.0332 15.1396 53.8867 15.1396 53.7305 15.1396C53.5742 15.1299 53.4277 15.1201 53.291 15.1104C53.1543 15.1006 53.0566 15.0859 52.998 15.0664C52.8613 15.0176 52.7246 14.9395 52.5879 14.832C52.4512 14.7148 52.3242 14.5879 52.207 14.4512C52.0898 14.3047 51.9824 14.1582 51.8848 14.0117C51.7969 13.8555 51.7334 13.709 51.6943 13.5723C51.665 13.4648 51.6406 13.3037 51.6211 13.0889C51.6016 12.8643 51.5869 12.6348 51.5771 12.4004C51.5674 12.1562 51.5576 11.9219 51.5479 11.6973C51.5479 11.4727 51.5479 11.3018 51.5479 11.1846C51.5479 10.999 51.5527 10.7451 51.5625 10.4229C51.5723 10.0908 51.6016 9.75391 51.6504 9.41211C51.6992 9.07031 51.7676 8.75293 51.8555 8.45996C51.9531 8.15723 52.0898 7.94727 52.2656 7.83008C52.3438 7.78125 52.4902 7.7373 52.7051 7.69824C52.9199 7.65918 53.1738 7.625 53.4668 7.5957C53.7598 7.56641 54.0723 7.54687 54.4043 7.53711C54.7363 7.51758 55.0586 7.50781 55.3711 7.50781C55.6934 7.49805 55.9912 7.49316 56.2646 7.49316C56.5381 7.49316 56.7578 7.49805 56.9238 7.50781C57.0703 7.51758 57.2803 7.52734 57.5537 7.53711C57.8271 7.53711 58.1299 7.54199 58.4619 7.55176C58.8037 7.56152 59.1553 7.58105 59.5166 7.61035C59.8779 7.62988 60.2148 7.65918 60.5273 7.69824C60.8398 7.7373 61.1133 7.79102 61.3477 7.85938C61.5918 7.91797 61.7529 7.99121 61.8311 8.0791C61.958 8.21582 62.0605 8.4209 62.1387 8.69434C62.2168 8.96777 62.2754 9.26074 62.3145 9.57324C62.3633 9.87598 62.3926 10.1787 62.4023 10.4814C62.4219 10.7744 62.4316 11.0137 62.4316 11.1992ZM59.3262 11.5068C59.3262 11.3896 59.3213 11.2529 59.3115 11.0967C59.3018 10.9404 59.2871 10.7842 59.2676 10.6279C59.248 10.4619 59.2188 10.3057 59.1797 10.1592C59.1406 10.0029 59.0918 9.87598 59.0332 9.77832C58.9551 9.65137 58.8037 9.55371 58.5791 9.48535C58.3545 9.41699 58.1055 9.36816 57.832 9.33887C57.5684 9.2998 57.3047 9.27539 57.041 9.26562C56.7871 9.25586 56.5967 9.25098 56.4697 9.25098C56.4014 9.25098 56.2793 9.25586 56.1035 9.26562C55.9277 9.26562 55.7422 9.27051 55.5469 9.28027C55.3613 9.29004 55.1855 9.30957 55.0195 9.33887C54.8535 9.3584 54.7461 9.38281 54.6973 9.41211C54.6094 9.4707 54.541 9.56348 54.4922 9.69043C54.4434 9.80762 54.4043 9.93945 54.375 10.0859C54.3555 10.2324 54.3408 10.3789 54.3311 10.5254C54.3311 10.6621 54.3311 10.7744 54.3311 10.8623C54.3311 10.9502 54.3359 11.1113 54.3457 11.3457C54.3652 11.5703 54.3848 11.8145 54.4043 12.0781C54.4336 12.332 54.4678 12.5664 54.5068 12.7812C54.5459 12.9961 54.5947 13.1328 54.6533 13.1914C54.7217 13.2695 54.8486 13.333 55.0342 13.3818C55.2295 13.4307 55.4346 13.4746 55.6494 13.5137C55.874 13.543 56.0889 13.5674 56.2939 13.5869C56.499 13.5967 56.6455 13.6016 56.7334 13.6016C56.8896 13.6016 57.0752 13.5967 57.29 13.5869C57.5049 13.5771 57.7197 13.5527 57.9346 13.5137C58.1592 13.4746 58.3691 13.4209 58.5645 13.3525C58.7598 13.2842 58.916 13.1914 59.0332 13.0742C59.1016 13.0059 59.1553 12.9033 59.1943 12.7666C59.2334 12.6299 59.2627 12.4834 59.2822 12.3271C59.3018 12.1709 59.3115 12.0195 59.3115 11.873C59.3213 11.7168 59.3262 11.5947 59.3262 11.5068ZM72.4951 12.6494C72.4951 12.9131 72.4951 13.1816 72.4951 13.4551C72.4951 13.7188 72.4854 13.9824 72.4658 14.2461L69.1992 14.4512C69.2383 13.9434 69.2676 13.4404 69.2871 12.9424C69.3164 12.4443 69.3311 11.9365 69.3311 11.4189C69.3311 11.3701 69.3311 11.2871 69.3311 11.1699C69.3311 11.0527 69.3262 10.9307 69.3164 10.8037C69.3066 10.667 69.2969 10.54 69.2871 10.4229C69.2773 10.3057 69.2676 10.2227 69.2578 10.1738C69.209 10.0371 69.1553 9.91992 69.0967 9.82227C69.0479 9.72461 68.9844 9.64648 68.9062 9.58789C68.8379 9.5293 68.75 9.49023 68.6426 9.4707C68.5352 9.44141 68.4033 9.42676 68.2471 9.42676C68.1299 9.42676 67.9785 9.43652 67.793 9.45605C67.6172 9.47559 67.4365 9.50488 67.251 9.54395C67.0654 9.58301 66.8896 9.63184 66.7236 9.69043C66.5576 9.74902 66.4404 9.81738 66.3721 9.89551L66.3428 14.2168C66.3232 14.1777 66.2646 14.1582 66.167 14.1582C66.0791 14.1582 66.0156 14.1582 65.9766 14.1582C65.6836 14.1582 65.3809 14.1729 65.0684 14.2021C64.7559 14.2217 64.4531 14.251 64.1602 14.29C64.0332 13.1377 63.9209 11.9902 63.8232 10.8477C63.7256 9.70508 63.6133 8.55762 63.4863 7.40527C63.6816 7.39551 63.877 7.39062 64.0723 7.39062C64.2676 7.38086 64.4629 7.37598 64.6582 7.37598C64.9121 7.37598 65.166 7.38574 65.4199 7.40527C65.6836 7.41504 65.9424 7.4248 66.1963 7.43457L66.2988 8.5625C66.5723 8.11328 66.9434 7.7373 67.4121 7.43457C67.8809 7.13184 68.3838 6.98047 68.9209 6.98047C69.1943 6.98047 69.4775 6.99512 69.7705 7.02441C70.0635 7.05371 70.3418 7.1123 70.6055 7.2002C70.8789 7.28809 71.1328 7.41016 71.3672 7.56641C71.6113 7.72266 71.8164 7.92285 71.9824 8.16699C72.0605 8.28418 72.124 8.45996 72.1729 8.69434C72.2314 8.91895 72.2803 9.17773 72.3193 9.4707C72.3584 9.75391 72.3877 10.0566 72.4072 10.3789C72.4365 10.7012 72.4561 11.0088 72.4658 11.3018C72.4756 11.5947 72.4805 11.8633 72.4805 12.1074C72.4902 12.3418 72.4951 12.5225 72.4951 12.6494Z" fill="#1E40AF"/>
<path d="M87.9727 1.83548C87.6871 1.61725 87.3376 1.49902 86.9782 1.49902C86.6187 1.49902 86.2693 1.61725 85.9837 1.83548C83.7997 3.49548 78.7217 7.93948 78.7477 13.2655C78.7465 15.4485 79.6125 17.5425 81.1553 19.087C82.698 20.6315 84.7912 21.4998 86.9742 21.501C89.1572 21.5022 91.2512 20.6361 92.7957 19.0934C94.3401 17.5506 95.2085 15.4575 95.2097 13.2745C95.2357 8.02048 90.1577 3.52448 87.9727 1.83548ZM86.7107 18.2285C86.664 18.3672 86.5751 18.4878 86.4563 18.5734C86.3376 18.659 86.195 18.7052 86.0487 18.7055C85.9735 18.7057 85.8988 18.6936 85.8277 18.6695C82.5967 17.5955 82.5597 15.3135 82.5597 15.2165C82.5582 15.0308 82.6306 14.8522 82.7608 14.7199C82.891 14.5876 83.0685 14.5124 83.2542 14.511C83.4398 14.5095 83.6184 14.5819 83.7507 14.7121C83.8831 14.8424 83.9582 15.0198 83.9597 15.2055C83.9597 15.2865 84.0597 16.6055 86.2737 17.3465C86.4479 17.4064 86.5916 17.5326 86.6734 17.6977C86.7552 17.8628 86.7686 18.0535 86.7107 18.2285Z" fill="url(#paint0_linear_90_82)"/>
<defs>
<linearGradient id="paint0_linear_90_82" x1="93.0717" y1="18.8095" x2="80.8707" y2="6.60848" gradientUnits="userSpaceOnUse">
<stop stop-color="#1E40AF"/>
<stop offset="1" stop-color="#79AED4"/>
</linearGradient>
</defs>
</svg>
