<svg width="20" height="20" viewBox="0 0 20 20" fill="none" xmlns="http://www.w3.org/2000/svg">
<g clip-path="url(#clip0_135_354)">
<path d="M4.22668 9.98442e-06C3.67128 -0.00119847 3.12112 0.107303 2.60777 0.319285C2.09442 0.531266 1.628 0.842554 1.23528 1.23528C0.842554 1.628 0.531266 2.09442 0.319285 2.60777C0.107303 3.12112 -0.00119847 3.67128 9.98442e-06 4.22668V15.7733C-0.00119847 16.3287 0.107303 16.8789 0.319285 17.3922C0.531266 17.9056 0.842554 18.372 1.23528 18.7647C1.628 19.1575 2.09442 19.4688 2.60777 19.6807C3.12112 19.8927 3.67128 20.0012 4.22668 20H15.7733C16.3287 20.0012 16.8789 19.8927 17.3922 19.6807C17.9056 19.4688 18.372 19.1575 18.7647 18.7647C19.1575 18.372 19.4688 17.9056 19.6807 17.3922C19.8927 16.8789 20.0012 16.3287 20 15.7733V4.22668C20.0012 3.67128 19.8927 3.12112 19.6807 2.60777C19.4688 2.09442 19.1575 1.628 18.7647 1.23528C18.372 0.842554 17.9056 0.531266 17.3922 0.319285C16.8789 0.107303 16.3287 -0.00119847 15.7733 9.98442e-06H4.22668ZM11.6342 3.74168L14.1225 6.25834H14.1308V7.09168H10.8108L10.8158 4.59168H5.80001V15.425H13.2967V12.9267H14.13V16.2583H4.96751V3.75834H11.6192L11.6342 3.74168ZM15.1158 7.95251L15.77 8.60668L15.3333 9.04334L14.675 8.39334L15.1158 7.95251ZM6.63084 8.75834H11.6308V9.59168H6.63084V8.75834ZM14.09 8.98918L14.7425 9.63251L11.72 12.655L11.0658 11.9983L14.0908 8.99001L14.09 8.98918ZM6.63084 10.425H9.96418V11.2583H6.63084V10.425ZM6.63084 12.0917H9.13084V12.925H6.63084V12.0917ZM10.5958 12.7083L11.0108 13.1217L10.3892 13.33L10.5958 12.7083ZM6.63084 13.7583H8.30251V14.5917H6.63084V13.7583Z" fill="#1E40AF"/>
</g>
<defs>
<clipPath id="clip0_135_354">
<rect width="20" height="20" fill="white"/>
</clipPath>
</defs>
</svg>
