<svg width="36" height="36" viewBox="0 0 36 36" fill="none" xmlns="http://www.w3.org/2000/svg">
<path d="M32.25 27.54V29.25C32.25 29.4489 32.171 29.6397 32.0303 29.7803C31.8897 29.921 31.6989 30 31.5 30H4.5C4.30109 30 4.11032 29.921 3.96967 29.7803C3.82902 29.6397 3.75 29.4489 3.75 29.25V27.54C3.74959 26.9891 3.96264 26.4595 4.34442 26.0623C4.7262 25.6651 5.24701 25.4313 5.7975 25.41C5.90394 25.2173 5.97267 25.006 6 24.7875V15.84C5.99562 14.0761 6.39478 12.3346 7.16694 10.7486C7.93911 9.16271 9.06381 7.77442 10.455 6.69C11.8659 5.58993 13.5098 4.82738 15.2609 4.46078C17.012 4.09418 18.8238 4.13325 20.5575 4.575C25.35 5.745 29.25 10.845 29.25 15.9375V24.5925C29.4757 24.9316 29.7791 25.2119 30.135 25.41C30.6973 25.414 31.2352 25.6401 31.6315 26.0391C32.0277 26.4382 32.25 26.9777 32.25 27.54ZM17.64 3.465C18.5174 3.47145 19.3919 3.56694 20.25 3.75V3C20.25 2.40326 20.0129 1.83097 19.591 1.40901C19.169 0.987053 18.5967 0.75 18 0.75C17.4033 0.75 16.831 0.987053 16.409 1.40901C15.9871 1.83097 15.75 2.40326 15.75 3V3.615C16.3754 3.51794 17.0071 3.4678 17.64 3.465ZM12.81 30.75C12.9992 31.9909 13.6268 33.1229 14.5789 33.9409C15.5311 34.7588 16.7448 35.2085 18 35.2085C19.2552 35.2085 20.4689 34.7588 21.4211 33.9409C22.3732 33.1229 23.0008 31.9909 23.19 30.75H12.81Z" fill="#3B4D52"/>
</svg>
