<svg width="32" height="32" viewBox="0 0 32 32" fill="none" xmlns="http://www.w3.org/2000/svg">
<path fill-rule="evenodd" clip-rule="evenodd" d="M8 13C8.79565 13 9.55871 12.6839 10.1213 12.1213C10.6839 11.5587 11 10.7957 11 10C11 9.20436 10.6839 8.44129 10.1213 7.87868C9.55871 7.31608 8.79565 7.00001 8 7.00001C7.20435 7.00001 6.44129 7.31608 5.87868 7.87868C5.31607 8.44129 5 9.20436 5 10C5 10.7957 5.31607 11.5587 5.87868 12.1213C6.44129 12.6839 7.20435 13 8 13ZM14 10C14.0002 11.5831 13.3748 13.102 12.26 14.226C13.4055 14.9466 14.3494 15.946 15.0035 17.1307C15.6576 18.3155 16.0004 19.6467 16 21V24C16 25.0609 15.5786 26.0783 14.8284 26.8284C14.0783 27.5786 13.0609 28 12 28H4C2.93913 28 1.92172 27.5786 1.17157 26.8284C0.421427 26.0783 0 25.0609 0 24V21C0 18.146 1.494 15.642 3.74 14.226C3.04592 13.5262 2.53492 12.6662 2.25217 11.722C1.96943 10.7778 1.92365 9.77846 2.11888 8.81236C2.3141 7.84625 2.74433 6.94312 3.37152 6.18279C3.99871 5.42246 4.80355 4.82835 5.7149 4.45297C6.62625 4.0776 7.61605 3.93251 8.59679 4.03055C9.57754 4.12858 10.519 4.46672 11.338 5.01507C12.1571 5.56341 12.8284 6.30508 13.2927 7.17452C13.7569 8.04395 13.9999 9.01437 14 10ZM3 21C3 19.6739 3.52678 18.4022 4.46447 17.4645C5.40215 16.5268 6.67392 16 8 16C9.32608 16 10.5979 16.5268 11.5355 17.4645C12.4732 18.4022 13 19.6739 13 21V24C13 24.2652 12.8946 24.5196 12.7071 24.7071C12.5196 24.8946 12.2652 25 12 25H4C3.73478 25 3.48043 24.8946 3.29289 24.7071C3.10536 24.5196 3 24.2652 3 24V21ZM26 20C25.6022 20 25.2206 19.842 24.9393 19.5607C24.658 19.2794 24.5 18.8978 24.5 18.5V15.5H21.5C21.1022 15.5 20.7206 15.342 20.4393 15.0607C20.158 14.7794 20 14.3978 20 14C20 13.6022 20.158 13.2206 20.4393 12.9393C20.7206 12.658 21.1022 12.5 21.5 12.5H24.5V9.5C24.5 9.10218 24.658 8.72065 24.9393 8.43934C25.2206 8.15804 25.6022 8.00001 26 8.00001C26.3978 8.00001 26.7794 8.15804 27.0607 8.43934C27.342 8.72065 27.5 9.10218 27.5 9.5V12.5H30.5C30.8978 12.5 31.2794 12.658 31.5607 12.9393C31.842 13.2206 32 13.6022 32 14C32 14.3978 31.842 14.7794 31.5607 15.0607C31.2794 15.342 30.8978 15.5 30.5 15.5H27.5V18.5C27.5 18.8978 27.342 19.2794 27.0607 19.5607C26.7794 19.842 26.3978 20 26 20Z" fill="#1E40AF"/>
</svg>
