<svg width="29" height="29" viewBox="0 0 29 29" fill="none" xmlns="http://www.w3.org/2000/svg">
<g clip-path="url(#clip0_135_338)">
<path d="M27.1875 16.3125H15.8594V5.43751C15.8594 5.31733 15.8116 5.20208 15.7267 5.1171C15.6417 5.03212 15.5264 4.98438 15.4062 4.98438H12.2344V0.906257C12.2344 0.831641 12.216 0.758178 12.1807 0.692392C12.1455 0.626607 12.0946 0.570534 12.0325 0.529155C11.9704 0.487776 11.8991 0.46237 11.8248 0.455195C11.7506 0.448019 11.6757 0.459296 11.6068 0.488023L0.731797 5.01927C0.649258 5.0537 0.578754 5.11179 0.529164 5.18622C0.479575 5.26064 0.453118 5.34807 0.453125 5.43751V24.9219C0.453125 25.0421 0.500865 25.1573 0.585842 25.2423C0.67082 25.3273 0.786074 25.375 0.90625 25.375H9.96875V27.1875C9.96875 27.548 10.112 27.8938 10.3669 28.1487C10.6218 28.4037 10.9676 28.5469 11.3281 28.5469H27.1875C27.548 28.5469 27.8938 28.4037 28.1487 28.1487C28.4037 27.8938 28.5469 27.548 28.5469 27.1875V17.6719C28.5469 17.3114 28.4037 16.9656 28.1487 16.7107C27.8938 16.4557 27.548 16.3125 27.1875 16.3125ZM11.3281 4.98438H3.17188L11.3281 1.58594V4.98438ZM1.35938 24.4688V5.89063H14.9531V16.3125H11.3281C10.9676 16.3125 10.6218 16.4557 10.3669 16.7107C10.112 16.9656 9.96875 17.3114 9.96875 17.6719V18.5781H2.71875V19.4844H9.96875V20.3906H2.71875V21.2969H9.96875V22.2031H2.71875V23.1094H9.96875V24.4688H1.35938ZM27.6406 27.1875C27.6406 27.3077 27.5929 27.4229 27.5079 27.5079C27.4229 27.5929 27.3077 27.6406 27.1875 27.6406H11.3281C11.2079 27.6406 11.0927 27.5929 11.0077 27.5079C10.9227 27.4229 10.875 27.3077 10.875 27.1875V17.6719C10.875 17.5517 10.9227 17.4365 11.0077 17.3515C11.0927 17.2665 11.2079 17.2188 11.3281 17.2188H27.1875C27.3077 17.2188 27.4229 17.2665 27.5079 17.3515C27.5929 17.4365 27.6406 17.5517 27.6406 17.6719V27.1875Z" fill="#1E40AF"/>
<path d="M8.15625 16.3125C9.05245 16.3125 9.92852 16.0468 10.6737 15.5489C11.4188 15.0509 11.9996 14.3433 12.3426 13.5153C12.6855 12.6873 12.7753 11.7762 12.6004 10.8972C12.4256 10.0183 11.994 9.21088 11.3603 8.57717C10.7266 7.94347 9.91923 7.51191 9.04025 7.33707C8.16128 7.16223 7.25019 7.25196 6.42222 7.59492C5.59424 7.93788 4.88655 8.51866 4.38865 9.26382C3.89075 10.009 3.625 10.8851 3.625 11.7813C3.62632 12.9826 4.10414 14.1344 4.95363 14.9839C5.80312 15.8334 6.95489 16.3112 8.15625 16.3125ZM4.56252 12.2344H5.9015C5.92229 13.198 6.14067 14.1471 6.54312 15.0229C6.00929 14.7566 5.54931 14.3629 5.20385 13.8765C4.8584 13.3901 4.63813 12.8261 4.56252 12.2344ZM8.15625 8.15625C8.67191 8.15625 9.4028 9.37969 9.50294 11.3281H6.80956C6.9097 9.37969 7.64059 8.15625 8.15625 8.15625ZM9.50294 12.2344C9.4028 14.1828 8.67191 15.4063 8.15625 15.4063C7.64059 15.4063 6.9097 14.1828 6.80956 12.2344H9.50294ZM9.76937 15.0229C10.1718 14.1471 10.3902 13.198 10.411 12.2344H11.75C11.6744 12.8261 11.4541 13.3901 11.1086 13.8765C10.7632 14.3629 10.3032 14.7566 9.76937 15.0229ZM11.75 11.3281H10.411C10.3902 10.3645 10.1718 9.4154 9.76937 8.5396C10.3032 8.80589 10.7632 9.19963 11.1086 9.686C11.4541 10.1724 11.6744 10.7364 11.75 11.3281ZM6.54312 8.5396C6.14067 9.4154 5.92229 10.3645 5.9015 11.3281H4.56252C4.63813 10.7364 4.8584 10.1724 5.20385 9.686C5.54931 9.19963 6.00929 8.80589 6.54312 8.5396ZM26.2812 18.125H19.4844C19.3642 18.125 19.2489 18.1727 19.164 18.2577C19.079 18.3427 19.0312 18.458 19.0312 18.5781V26.2813C19.0312 26.4014 19.079 26.5167 19.164 26.6017C19.2489 26.6866 19.3642 26.7344 19.4844 26.7344H26.2812C26.4014 26.7344 26.5167 26.6866 26.6017 26.6017C26.6866 26.5167 26.7344 26.4014 26.7344 26.2813V18.5781C26.7344 18.458 26.6866 18.3427 26.6017 18.2577C26.5167 18.1727 26.4014 18.125 26.2812 18.125ZM22.2031 21.5234C22.2031 21.389 22.243 21.2576 22.3177 21.1458C22.3924 21.0341 22.4985 20.9469 22.6227 20.8955C22.7469 20.844 22.8836 20.8306 23.0154 20.8568C23.1473 20.883 23.2684 20.9478 23.3634 21.0428C23.4585 21.1379 23.5232 21.259 23.5494 21.3908C23.5757 21.5227 23.5622 21.6593 23.5108 21.7835C23.4593 21.9077 23.3722 22.0139 23.2604 22.0886C23.1487 22.1633 23.0172 22.2031 22.8828 22.2031C22.7025 22.2031 22.5297 22.1315 22.4022 22.0041C22.2747 21.8766 22.2031 21.7037 22.2031 21.5234ZM22.8828 23.1094C23.2121 23.1424 23.5153 23.3033 23.7271 23.5575C23.939 23.8117 24.0426 24.1389 24.0156 24.4688V25.8281H21.75V24.4688C21.7231 24.1389 21.8267 23.8117 22.0385 23.5575C22.2504 23.3033 22.5535 23.1424 22.8828 23.1094ZM25.8281 25.8281H24.9219V24.4688C24.9265 24.111 24.8492 23.757 24.6958 23.4338C24.5424 23.1105 24.317 22.8268 24.0369 22.6041C24.2493 22.3788 24.3911 22.0962 24.4448 21.7912C24.4984 21.4862 24.4616 21.1722 24.3389 20.8879C24.2162 20.6035 24.0129 20.3614 23.7541 20.1912C23.4954 20.0211 23.1925 19.9304 22.8828 19.9304C22.5731 19.9304 22.2702 20.0211 22.0115 20.1912C21.7527 20.3614 21.5495 20.6035 21.4267 20.8879C21.304 21.1722 21.2672 21.4862 21.3209 21.7912C21.3745 22.0962 21.5163 22.3788 21.7287 22.6041C21.4486 22.8268 21.2233 23.1105 21.0699 23.4338C20.9165 23.757 20.8391 24.111 20.8438 24.4688V25.8281H19.9375V19.0313H25.8281V25.8281Z" fill="#1E40AF"/>
<path d="M17.6719 18.5781H12.2344V19.4844H17.6719V18.5781Z" fill="#1E40AF"/>
<path d="M17.6705 22.2031H12.2344V23.1094H17.6705V22.2031Z" fill="#1E40AF"/>
<path d="M17.6719 20.3906H12.2344V21.2969H17.6719V20.3906Z" fill="#1E40AF"/>
<path d="M17.6719 24.0156H12.2344C12.1142 24.0156 11.9989 24.0634 11.914 24.1483C11.829 24.2333 11.7812 24.3486 11.7812 24.4688V26.2812C11.7812 26.4014 11.829 26.5167 11.914 26.6017C11.9989 26.6866 12.1142 26.7344 12.2344 26.7344H17.6719C17.7921 26.7344 17.9073 26.6866 17.9923 26.6017C18.0773 26.5167 18.125 26.4014 18.125 26.2812V24.4688C18.125 24.3486 18.0773 24.2333 17.9923 24.1483C17.9073 24.0634 17.7921 24.0156 17.6719 24.0156ZM17.2188 25.8281H12.6875V24.9219H17.2188V25.8281Z" fill="#1E40AF"/>
</g>
<defs>
<clipPath id="clip0_135_338">
<rect width="29" height="29" fill="white"/>
</clipPath>
</defs>
</svg>
