<svg width="24" height="24" viewBox="0 0 24 24" fill="none" xmlns="http://www.w3.org/2000/svg">
<path d="M20.4809 15.4868L18.8309 13.8368C18.3391 13.3489 17.6752 13.0738 16.9824 13.0708C16.2896 13.0679 15.6234 13.3373 15.1274 13.821C14.8628 14.0872 14.5136 14.2528 14.1401 14.2893C13.7665 14.3259 13.3919 14.2311 13.0807 14.0213C11.8523 13.2015 10.7971 12.1483 9.97491 10.9215C9.76878 10.6068 9.67742 10.2307 9.71622 9.85652C9.75502 9.48233 9.9216 9.13296 10.1879 8.86726C10.6672 8.37081 10.9332 7.70646 10.9288 7.01639C10.9245 6.32633 10.6502 5.66538 10.1647 5.17501L8.51466 3.52501C8.02067 3.03271 7.3517 2.75629 6.65429 2.75629C5.95688 2.75629 5.2879 3.03271 4.79391 3.52501L4.31916 4.00051C1.84416 6.47551 2.02941 11.679 7.17891 16.8255C10.2839 19.9313 13.4092 21.2318 15.9434 21.2318C16.6894 21.2566 17.4329 21.1327 18.1305 20.8673C18.8282 20.602 19.466 20.2004 20.0069 19.686L20.4824 19.2105C20.9756 18.7163 21.2525 18.0465 21.2522 17.3483C21.2519 16.6501 20.9745 15.9806 20.4809 15.4868ZM19.4204 18.15L18.9449 18.6255C16.9949 20.5755 12.6907 20.2193 8.23791 15.7658C3.78516 11.3123 3.42816 7.00501 5.37816 5.05501L5.84991 4.58026C6.06232 4.36862 6.34994 4.24979 6.64979 4.24979C6.94963 4.24979 7.23726 4.36862 7.44966 4.58026L9.09966 6.23026C9.30821 6.43985 9.42658 6.72265 9.42953 7.0183C9.43247 7.31396 9.31975 7.59906 9.11541 7.81276C8.60862 8.32278 8.29249 8.99147 8.21999 9.70681C8.14748 10.4221 8.32301 11.1407 8.71716 11.742C9.65132 13.1399 10.8526 14.3394 12.2519 15.2715C12.8514 15.6657 13.5681 15.8423 14.2821 15.7717C14.9962 15.7011 15.6644 15.3877 16.1752 14.8838C16.3885 14.677 16.6744 14.5622 16.9714 14.564C17.2685 14.5658 17.5529 14.6842 17.7637 14.8935L19.4137 16.5435C19.52 16.6483 19.6046 16.7731 19.6625 16.9107C19.7204 17.0483 19.7506 17.196 19.7512 17.3454C19.7518 17.4947 19.7229 17.6426 19.6662 17.7807C19.6094 17.9188 19.5259 18.0443 19.4204 18.15Z" fill="#00D26A"/>
</svg>
