<svg width="20" height="20" viewBox="0 0 20 20" fill="none" xmlns="http://www.w3.org/2000/svg">
<path d="M17.0675 12.9056L15.6925 11.5306C15.2826 11.124 14.7294 10.8948 14.1521 10.8924C13.5747 10.8899 13.0196 11.1144 12.6063 11.5175C12.3857 11.7393 12.0948 11.8773 11.7835 11.9078C11.4722 11.9382 11.16 11.8592 10.9006 11.6844C9.87701 11.0012 8.99763 10.1236 8.31251 9.10126C8.14074 8.83902 8.0646 8.52558 8.09693 8.21376C8.12926 7.90195 8.26809 7.6108 8.49001 7.38938C8.88944 6.97567 9.11107 6.42205 9.10744 5.84699C9.10382 5.27194 8.87525 4.72115 8.47063 4.31251L7.09563 2.93751C6.68398 2.52726 6.12649 2.29691 5.54532 2.29691C4.96415 2.29691 4.40667 2.52726 3.99501 2.93751L3.59938 3.33376C1.53688 5.39626 1.69126 9.73251 5.98251 14.0213C8.57001 16.6094 11.1744 17.6931 13.2863 17.6931C13.9079 17.7138 14.5275 17.6106 15.1089 17.3894C15.6902 17.1683 16.2218 16.8336 16.6725 16.405L17.0688 16.0088C17.4798 15.5969 17.7105 15.0388 17.7102 14.4569C17.71 13.8751 17.4788 13.3171 17.0675 12.9056ZM16.1838 15.125L15.7875 15.5213C14.1625 17.1463 10.5756 16.8494 6.86501 13.1381C3.15438 9.42688 2.85688 5.83751 4.48188 4.21251L4.87501 3.81688C5.05201 3.64052 5.2917 3.54149 5.54157 3.54149C5.79144 3.54149 6.03113 3.64052 6.20813 3.81688L7.58313 5.19188C7.75692 5.36654 7.85557 5.60221 7.85802 5.84859C7.86047 6.09496 7.76654 6.33255 7.59626 6.51063C7.17393 6.93565 6.91049 7.49289 6.85007 8.08901C6.78965 8.68512 6.93592 9.28389 7.26438 9.78501C8.04285 10.9499 9.04391 11.9495 10.21 12.7263C10.7096 13.0548 11.3068 13.2019 11.9019 13.1431C12.4969 13.0843 13.0537 12.8231 13.4794 12.4031C13.6571 12.2308 13.8954 12.1352 14.1429 12.1367C14.3905 12.1382 14.6275 12.2368 14.8031 12.4113L16.1781 13.7863C16.2668 13.8736 16.3372 13.9776 16.3855 14.0923C16.4338 14.2069 16.4589 14.33 16.4594 14.4545C16.4599 14.5789 16.4359 14.7022 16.3885 14.8173C16.3412 14.9323 16.2716 15.0369 16.1838 15.125Z" fill="white"/>
</svg>
