<svg width="24" height="24" viewBox="0 0 24 24" fill="none" xmlns="http://www.w3.org/2000/svg">
<path d="M8.83508 8.46C8.7926 7.57641 9.10169 6.71195 9.69479 6.05561C10.2879 5.39927 11.1167 5.00446 12.0001 4.95751C12.8834 5.00446 13.7123 5.39927 14.3054 6.05561C14.8985 6.71195 15.2076 7.57641 15.1651 8.46C15.2061 9.34248 14.8963 10.2053 14.3033 10.8602C13.7103 11.515 12.8823 11.9086 12.0001 11.955C11.1179 11.9086 10.2899 11.515 9.69688 10.8602C9.10388 10.2053 8.79406 9.34248 8.83508 8.46ZM22.5301 12C22.5333 14.0904 21.9088 16.1336 20.7376 17.865C20.7069 17.9179 20.6718 17.9681 20.6326 18.015C19.6649 19.4084 18.3743 20.5469 16.8711 21.3331C15.3678 22.1193 13.6965 22.53 12.0001 22.53C10.3036 22.53 8.63238 22.1193 7.12911 21.3331C5.62585 20.5469 4.33526 19.4084 3.36758 18.015C3.32837 17.9681 3.29325 17.9179 3.26258 17.865C2.34571 16.4993 1.76164 14.9377 1.5572 13.3055C1.35277 11.6734 1.53367 10.016 2.08539 8.46633C2.63711 6.91668 3.5443 5.51788 4.73419 4.38211C5.92409 3.24635 7.36359 2.40523 8.93724 1.92622C10.5109 1.4472 12.1749 1.34362 13.7958 1.62378C15.4167 1.90394 16.9494 2.56004 18.271 3.53947C19.5925 4.51889 20.6662 5.79439 21.4058 7.26365C22.1455 8.73292 22.5305 10.3551 22.5301 12ZM2.59508 12C2.59226 13.5979 2.99757 15.1701 3.77258 16.5675C5.40008 14.43 8.52008 13.095 12.0001 13.095C15.4801 13.095 18.6001 14.43 20.2276 16.5675C20.9245 15.3118 21.3247 13.9132 21.3975 12.4789C21.4703 11.0446 21.2137 9.61267 20.6474 8.29288C20.0811 6.97309 19.2202 5.80048 18.1305 4.86492C17.0409 3.92936 15.7516 3.2557 14.3613 2.89557C12.9711 2.53544 11.5168 2.4984 10.11 2.78729C8.7032 3.07618 7.38123 3.68333 6.2454 4.56221C5.10958 5.44108 4.19006 6.56835 3.55732 7.8576C2.92458 9.14685 2.59542 10.5639 2.59508 12Z" fill="#1E40AF"/>
</svg>
