<svg width="44" height="44" viewBox="0 0 44 44" fill="none" xmlns="http://www.w3.org/2000/svg">
<path d="M40.551 11.1461L30.0924 1.02266C29.4564 0.403905 28.5885 0.0515625 27.6947 0.0515625L7.99775 0C5.6087 0 3.6665 1.925 3.6665 4.29688V39.686C3.6665 42.0149 5.66885 43.9914 8.04073 43.9914H37.1736C39.5025 43.9914 41.393 42.0578 41.393 39.6774V13.2C41.393 12.4008 41.0924 11.6703 40.551 11.1461ZM30.0493 5.7664L35.4549 10.9914H30.9861C30.4876 10.9914 30.0493 10.6047 30.0493 10.1664V5.7664ZM37.1736 40.5539H8.04073C7.55948 40.5539 7.104 40.1328 7.104 39.6774V4.29688C7.104 3.8414 7.5251 3.4375 7.99775 3.4375L26.6118 3.48907V10.1664C26.6118 12.5125 28.5712 14.4289 30.9861 14.4289H37.9555V39.6774C37.9555 40.1071 37.6633 40.5539 37.1736 40.5539Z" fill="black" fill-opacity="0.8"/>
<path d="M11.1431 22.9367C11.1431 23.8821 11.9165 24.6554 12.8618 24.6554H27.901C28.8462 24.6554 29.6195 23.8821 29.6195 22.9367C29.6195 21.9914 28.8462 21.2179 27.901 21.2179H12.8618C11.9165 21.2179 11.1431 21.9914 11.1431 22.9367ZM12.7759 17.7805H22.7445C23.69 17.7805 24.4635 17.0071 24.4635 16.0617C24.4635 15.1164 23.69 14.343 22.7445 14.343H12.7759C11.8306 14.343 11.0571 15.1164 11.0571 16.0617C11.0571 17.0071 11.8306 17.7805 12.7759 17.7805ZM32.1978 28.0929H12.8618C11.9165 28.0929 11.1431 28.8664 11.1431 29.8117C11.1431 30.7571 11.9165 31.5304 12.8618 31.5304H32.1978C33.143 31.5304 33.9165 30.7571 33.9165 29.8117C33.9165 28.8664 33.143 28.0929 32.1978 28.0929Z" fill="black" fill-opacity="0.8"/>
</svg>
