<svg width="14" height="14" viewBox="0 0 14 14" fill="none" xmlns="http://www.w3.org/2000/svg">
<path d="M13.6148 13.6148C13.1013 14.1284 12.2688 14.1284 11.7552 13.6148L9.43478 11.2943C8.48078 11.9064 7.3531 12.271 6.13551 12.271C2.7472 12.271 0 9.52417 0 6.13548C0 2.74679 2.7472 0 6.13551 0C9.52425 0 12.271 2.74674 12.271 6.13548C12.271 7.35266 11.9059 8.48078 11.2943 9.43521L13.6148 11.7557C14.1284 12.2693 14.1284 13.1013 13.6148 13.6148ZM6.13551 1.75298C3.71528 1.75298 1.75301 3.71482 1.75301 6.13545C1.75301 8.55609 3.71531 10.5179 6.13551 10.5179C8.55611 10.5179 10.518 8.55609 10.518 6.13545C10.518 3.71482 8.55611 1.75298 6.13551 1.75298Z" fill="#646363" fill-opacity="0.6"/>
</svg>
