<svg width="24" height="24" viewBox="0 0 24 24" fill="none" xmlns="http://www.w3.org/2000/svg">
<path d="M6.35791 6.65625C6.35791 4.38188 8.20854 2.53125 10.4829 2.53125C12.7573 2.53125 14.6079 4.38188 14.6079 6.65625C14.6079 8.93062 12.7573 10.7812 10.4829 10.7812C8.20854 10.7812 6.35791 8.93062 6.35791 6.65625ZM14.5798 12.8869C14.5217 12.7463 14.3848 12.6562 14.2329 12.6562H7.46979C4.78854 12.6562 2.60791 14.8369 2.60791 17.5181V21.0938C2.60791 21.3 2.77666 21.4688 2.98291 21.4688H5.98291V18.2812C5.98291 17.8669 6.31854 17.5312 6.73291 17.5312C7.14728 17.5312 7.48291 17.8669 7.48291 18.2812V21.4688H9.73291C9.93916 21.4688 10.1079 21.3 10.1079 21.0938V17.6869L14.4973 13.2975C14.606 13.1887 14.6379 13.0275 14.5798 12.8869ZM11.7185 18.3919C11.6473 18.4631 11.6079 18.5569 11.6079 18.6562V20.9062C11.6079 21.1125 11.7767 21.2812 11.9829 21.2812H14.2329C14.3323 21.2812 14.4279 21.2419 14.4973 21.1706L18.8417 16.8263L16.0629 14.0456L11.7185 18.3919ZM21.041 12.9338L19.9554 11.8481C19.7285 11.6213 19.4285 11.4975 19.1079 11.4975C18.7873 11.4975 18.4873 11.6231 18.2604 11.8481L17.1242 12.9844L19.9048 15.765L21.041 14.6287C21.2679 14.4019 21.3917 14.1019 21.3917 13.7812C21.3917 13.4606 21.266 13.1606 21.041 12.9338Z" fill="#1038BA"/>
</svg>
