<svg width="24" height="24" viewBox="0 0 24 24" fill="none" xmlns="http://www.w3.org/2000/svg">
<path d="M12.375 9.00008H11.625C11.4261 9.00008 11.2353 8.92106 11.0947 8.78041C10.954 8.63975 10.875 8.44899 10.875 8.25008C10.875 8.15062 10.8355 8.05524 10.7652 7.98491C10.6948 7.91458 10.5995 7.87508 10.5 7.87508C10.4005 7.87508 10.3052 7.91458 10.2348 7.98491C10.1645 8.05524 10.125 8.15062 10.125 8.25008C10.125 8.6479 10.283 9.02943 10.5643 9.31074C10.8456 9.59204 11.2272 9.75008 11.625 9.75008V10.1251C11.625 10.2245 11.6645 10.3199 11.7348 10.3902C11.8052 10.4606 11.9005 10.5001 12 10.5001C12.0995 10.5001 12.1948 10.4606 12.2652 10.3902C12.3355 10.3199 12.375 10.2245 12.375 10.1251V9.75008C12.7728 9.75008 13.1544 9.59204 13.4357 9.31074C13.717 9.02943 13.875 8.6479 13.875 8.25008C13.875 7.85225 13.717 7.47072 13.4357 7.18942C13.1544 6.90811 12.7728 6.75008 12.375 6.75008H11.625C11.4261 6.75008 11.2353 6.67106 11.0947 6.53041C10.954 6.38975 10.875 6.19899 10.875 6.00008C10.875 5.80116 10.954 5.6104 11.0947 5.46975C11.2353 5.32909 11.4261 5.25008 11.625 5.25008H12.375C12.5739 5.25008 12.7647 5.32909 12.9053 5.46975C13.046 5.6104 13.125 5.80116 13.125 6.00008C13.125 6.09953 13.1645 6.19491 13.2348 6.26524C13.3052 6.33557 13.4005 6.37508 13.5 6.37508C13.5995 6.37508 13.6948 6.33557 13.7652 6.26524C13.8355 6.19491 13.875 6.09953 13.875 6.00008C13.8738 5.60262 13.7154 5.22177 13.4343 4.94073C13.1533 4.65968 12.7725 4.50126 12.375 4.50008V4.12508C12.375 4.02562 12.3355 3.93024 12.2652 3.85991C12.1948 3.78958 12.0995 3.75008 12 3.75008C11.9005 3.75008 11.8052 3.78958 11.7348 3.85991C11.6645 3.93024 11.625 4.02562 11.625 4.12508V4.50008C11.2272 4.50008 10.8456 4.65811 10.5643 4.93942C10.283 5.22072 10.125 5.60225 10.125 6.00008C10.125 6.3979 10.283 6.77943 10.5643 7.06074C10.8456 7.34204 11.2272 7.50008 11.625 7.50008H12.375C12.5739 7.50008 12.7647 7.57909 12.9053 7.71975C13.046 7.8604 13.125 8.05116 13.125 8.25008C13.125 8.44899 13.046 8.63975 12.9053 8.78041C12.7647 8.92106 12.5739 9.00008 12.375 9.00008ZM22.5 6.78833V5.62508C22.5 5.12779 22.3025 4.65088 21.9508 4.29925C21.5992 3.94762 21.1223 3.75008 20.625 3.75008H15.5025C15.0506 3.27603 14.5072 2.89865 13.9051 2.6408C13.3031 2.38295 12.6549 2.25 12 2.25C11.3451 2.25 10.6969 2.38295 10.0949 2.6408C9.49285 2.89865 8.94941 3.27603 8.4975 3.75008H1.875C1.37772 3.75008 0.900805 3.94762 0.549175 4.29925C0.197544 4.65088 0 5.12779 0 5.62508L0 19.8751C0 20.3724 0.197544 20.8493 0.549175 21.2009C0.900805 21.5525 1.37772 21.7501 1.875 21.7501H22.125C22.6223 21.7501 23.0992 21.5525 23.4508 21.2009C23.8025 20.8493 24 20.3724 24 19.8751V8.62508C23.9999 8.19296 23.8506 7.77414 23.5773 7.43945C23.3039 7.10476 22.9234 6.87475 22.5 6.78833ZM20.625 4.50008C20.9234 4.50008 21.2095 4.6186 21.4205 4.82958C21.6315 5.04056 21.75 5.32671 21.75 5.62508V6.75008H16.86C16.8028 5.9479 16.5421 5.17353 16.1025 4.50008H20.625ZM8.82 4.50008C9.33939 3.8692 10.0347 3.40707 10.8175 3.17247C11.6002 2.93787 12.4351 2.94141 13.2159 3.18263C13.9966 3.42385 14.688 3.89186 15.202 4.52712C15.716 5.16237 16.0295 5.93617 16.1025 6.75008C16.1325 6.99917 16.1325 7.25098 16.1025 7.50008C16.06 8.02426 15.912 8.53446 15.6675 9.00008C15.325 9.67895 14.8008 10.2494 14.1533 10.648C13.5058 11.0466 12.7604 11.2577 12 11.2577C11.2396 11.2577 10.4942 11.0466 9.84667 10.648C9.19915 10.2494 8.67497 9.67895 8.3325 9.00008C8.088 8.53446 7.94004 8.02426 7.8975 7.50008C7.86747 7.25098 7.86747 6.99917 7.8975 6.75008C7.96726 5.92329 8.28928 5.13787 8.82 4.50008ZM1.875 4.50008H7.8975C7.45792 5.17353 7.19722 5.9479 7.14 6.75008H1.875C1.57663 6.75008 1.29048 6.63155 1.0795 6.42057C0.868526 6.20959 0.75 5.92344 0.75 5.62508C0.75 5.32671 0.868526 5.04056 1.0795 4.82958C1.29048 4.6186 1.57663 4.50008 1.875 4.50008ZM23.25 16.5001H19.5C18.9033 16.5001 18.331 16.263 17.909 15.8411C17.4871 15.4191 17.25 14.8468 17.25 14.2501C17.25 13.6533 17.4871 13.081 17.909 12.6591C18.331 12.2371 18.9033 12.0001 19.5 12.0001H23.25V16.5001ZM23.25 11.2501H19.5C18.7044 11.2501 17.9413 11.5661 17.3787 12.1288C16.8161 12.6914 16.5 13.4544 16.5 14.2501C16.5 15.0457 16.8161 15.8088 17.3787 16.3714C17.9413 16.934 18.7044 17.2501 19.5 17.2501H23.25V19.8751C23.25 20.1734 23.1315 20.4596 22.9205 20.6706C22.7095 20.8815 22.4234 21.0001 22.125 21.0001H1.875C1.57663 21.0001 1.29048 20.8815 1.0795 20.6706C0.868526 20.4596 0.75 20.1734 0.75 19.8751V7.12508C1.07456 7.36849 1.46931 7.50008 1.875 7.50008H7.14C7.17702 8.01642 7.29864 8.52317 7.5 9.00008H4.125C4.02554 9.00008 3.93016 9.03958 3.85984 9.10991C3.78951 9.18024 3.75 9.27562 3.75 9.37508C3.75 9.47453 3.78951 9.56991 3.85984 9.64024C3.93016 9.71057 4.02554 9.75008 4.125 9.75008H7.8975C8.33712 10.4397 8.94348 11.0073 9.66053 11.4006C10.3776 11.7938 11.1822 12 12 12C12.8178 12 13.6224 11.7938 14.3395 11.4006C15.0565 11.0073 15.6629 10.4397 16.1025 9.75008H19.875C19.9745 9.75008 20.0698 9.71057 20.1402 9.64024C20.2105 9.56991 20.25 9.47453 20.25 9.37508C20.25 9.27562 20.2105 9.18024 20.1402 9.10991C20.0698 9.03958 19.9745 9.00008 19.875 9.00008H16.5C16.7014 8.52317 16.823 8.01642 16.86 7.50008H22.125C22.4234 7.50008 22.7095 7.6186 22.9205 7.82958C23.1315 8.04056 23.25 8.32671 23.25 8.62508V11.2501ZM3.75 19.1251C3.75 19.2245 3.78951 19.3199 3.85984 19.3902C3.93016 19.4606 4.02554 19.5001 4.125 19.5001H19.875C19.9745 19.5001 20.0698 19.4606 20.1402 19.3902C20.2105 19.3199 20.25 19.2245 20.25 19.1251C20.25 19.0256 20.2105 18.9302 20.1402 18.8599C20.0698 18.7896 19.9745 18.7501 19.875 18.7501H4.125C4.02554 18.7501 3.93016 18.7896 3.85984 18.8599C3.78951 18.9302 3.75 19.0256 3.75 19.1251ZM18.7725 14.2501C18.7725 14.4726 18.8385 14.6901 18.9621 14.8751C19.0857 15.0601 19.2614 15.2043 19.467 15.2894C19.6725 15.3746 19.8987 15.3969 20.117 15.3535C20.3352 15.3101 20.5357 15.2029 20.693 15.0456C20.8503 14.8882 20.9575 14.6878 21.0009 14.4696C21.0443 14.2513 21.022 14.0251 20.9369 13.8196C20.8517 13.614 20.7075 13.4383 20.5225 13.3147C20.3375 13.1911 20.12 13.1251 19.8975 13.1251C19.5991 13.1251 19.313 13.2436 19.102 13.4546C18.891 13.6656 18.7725 13.9517 18.7725 14.2501ZM19.8975 13.8751C19.9717 13.8751 20.0442 13.8971 20.1058 13.9383C20.1675 13.9795 20.2156 14.038 20.244 14.1066C20.2723 14.1751 20.2798 14.2505 20.2653 14.3232C20.2508 14.396 20.2151 14.4628 20.1627 14.5152C20.1102 14.5677 20.0434 14.6034 19.9707 14.6179C19.8979 14.6323 19.8225 14.6249 19.754 14.5965C19.6855 14.5681 19.6269 14.5201 19.5857 14.4584C19.5445 14.3967 19.5225 14.3242 19.5225 14.2501C19.5225 14.1506 19.562 14.0552 19.6323 13.9849C19.7027 13.9146 19.798 13.8751 19.8975 13.8751Z" fill="#34A853"/>
</svg>
