<svg width="44" height="44" viewBox="0 0 44 44" fill="none" xmlns="http://www.w3.org/2000/svg">
<path d="M4.9866 14.025C5.34511 14.1303 5.68977 14.278 6.01326 14.465C7.14959 15.1432 8.44826 15.5013 9.77159 15.5013C11.0949 15.5013 12.3936 15.1432 13.5299 14.465C14.2458 14.0601 15.0542 13.8473 15.8766 13.8473C16.699 13.8473 17.5074 14.0601 18.2233 14.465C19.3733 15.1226 20.6751 15.4685 21.9999 15.4685C23.3247 15.4685 24.6265 15.1226 25.7766 14.465C26.4924 14.0601 27.3009 13.8473 28.1233 13.8473C28.9457 13.8473 29.7541 14.0601 30.4699 14.465C31.6318 15.129 32.9451 15.4826 34.2833 15.4917C35.5761 15.489 36.8437 15.1341 37.9499 14.465C38.2734 14.278 38.6181 14.1303 38.9766 14.025C39.4434 13.8889 39.837 13.5729 40.0708 13.1465C40.3045 12.7202 40.3594 12.2184 40.2233 11.7517C40.0871 11.2849 39.7711 10.8913 39.3448 10.6575C38.9185 10.4237 38.4167 10.3689 37.9499 10.505C37.3071 10.7034 36.6914 10.9805 36.1166 11.33C35.5326 11.6715 34.8682 11.8515 34.1916 11.8515C33.515 11.8515 32.8506 11.6715 32.2666 11.33C30.9954 10.617 29.5624 10.2425 28.1049 10.2425C26.6474 10.2425 25.2144 10.617 23.9433 11.33C23.353 11.6729 22.6826 11.8536 21.9999 11.8536C21.3173 11.8536 20.6468 11.6729 20.0566 11.33C18.7854 10.617 17.3524 10.2425 15.8949 10.2425C14.4374 10.2425 13.0044 10.617 11.7333 11.33C11.1492 11.6715 10.4848 11.8515 9.80826 11.8515C9.13169 11.8515 8.4673 11.6715 7.88326 11.33C7.3085 10.9805 6.69272 10.7034 6.04993 10.505C5.58315 10.3689 5.0814 10.4237 4.65507 10.6575C4.22874 10.8913 3.91274 11.2849 3.7766 11.7517C3.64045 12.2184 3.69531 12.7202 3.92911 13.1465C4.1629 13.5729 4.55648 13.8889 5.02326 14.025H4.9866ZM37.9866 28.8383C37.3438 29.0367 36.728 29.3138 36.1533 29.6633C35.5692 30.0049 34.9048 30.1849 34.2283 30.1849C33.5517 30.1849 32.8873 30.0049 32.3033 29.6633C31.0321 28.9503 29.5991 28.5758 28.1416 28.5758C26.6841 28.5758 25.2511 28.9503 23.9799 29.6633C23.3897 30.0063 22.7192 30.1869 22.0366 30.1869C21.354 30.1869 20.6835 30.0063 20.0933 29.6633C18.8221 28.9503 17.3891 28.5758 15.9316 28.5758C14.4741 28.5758 13.0411 28.9503 11.7699 29.6633C11.1859 30.0049 10.5215 30.1849 9.84493 30.1849C9.16836 30.1849 8.50397 30.0049 7.91993 29.6633C7.34517 29.3138 6.72938 29.0367 6.0866 28.8383C5.85547 28.7709 5.61333 28.7497 5.374 28.7759C5.13467 28.802 4.90283 28.8751 4.69174 28.9908C4.48064 29.1066 4.29441 29.2628 4.14368 29.4506C3.99295 29.6383 3.88067 29.8539 3.81326 30.085C3.74585 30.3161 3.72462 30.5583 3.75079 30.7976C3.77696 31.0369 3.85001 31.2688 3.96577 31.4799C4.08154 31.691 4.23775 31.8772 4.42548 32.0279C4.61322 32.1786 4.8288 32.2909 5.05993 32.3583C5.41845 32.4636 5.76311 32.6113 6.0866 32.7983C7.22292 33.4765 8.5216 33.8346 9.84493 33.8346C11.1683 33.8346 12.4669 33.4765 13.6033 32.7983C14.3191 32.3935 15.1275 32.1807 15.9499 32.1807C16.7723 32.1807 17.5808 32.3935 18.2966 32.7983C19.4466 33.4559 20.7485 33.8019 22.0733 33.8019C23.398 33.8019 24.6999 33.4559 25.8499 32.7983C26.5658 32.3935 27.3742 32.1807 28.1966 32.1807C29.019 32.1807 29.8274 32.3935 30.5433 32.7983C31.7051 33.4623 33.0184 33.8159 34.3566 33.825C35.6494 33.8223 36.917 33.4674 38.0233 32.7983C38.3467 32.6113 38.6914 32.4636 39.0499 32.3583C39.5167 32.2222 39.9103 31.9062 40.1441 31.4799C40.3779 31.0535 40.4327 30.5518 40.2966 30.085C40.1604 29.6182 39.8445 29.2246 39.4181 28.9908C38.9918 28.757 38.49 28.7022 38.0233 28.8383H37.9866ZM37.9866 19.6717C37.3438 19.87 36.728 20.1471 36.1533 20.4967C35.5692 20.8382 34.9048 21.0182 34.2283 21.0182C33.5517 21.0182 32.8873 20.8382 32.3033 20.4967C31.0321 19.7836 29.5991 19.4092 28.1416 19.4092C26.6841 19.4092 25.2511 19.7836 23.9799 20.4967C23.3897 20.8396 22.7192 21.0202 22.0366 21.0202C21.354 21.0202 20.6835 20.8396 20.0933 20.4967C18.8221 19.7836 17.3891 19.4092 15.9316 19.4092C14.4741 19.4092 13.0411 19.7836 11.7699 20.4967C11.1859 20.8382 10.5215 21.0182 9.84493 21.0182C9.16836 21.0182 8.50397 20.8382 7.91993 20.4967C7.34517 20.1471 6.72938 19.87 6.0866 19.6717C5.84654 19.581 5.59014 19.5418 5.33397 19.5565C5.0778 19.5712 4.82757 19.6395 4.59947 19.7571C4.37137 19.8746 4.17047 20.0386 4.00977 20.2387C3.84908 20.4387 3.73217 20.6703 3.6666 20.9183C3.59918 21.1495 3.57796 21.3916 3.60412 21.6309C3.63029 21.8703 3.70334 22.1021 3.81911 22.3132C3.93487 22.5243 4.09108 22.7105 4.27881 22.8613C4.46655 23.012 4.68214 23.1243 4.91326 23.1917C5.27178 23.2969 5.61644 23.4447 5.93993 23.6317C7.07626 24.3099 8.37493 24.668 9.69826 24.668C11.0216 24.668 12.3203 24.3099 13.4566 23.6317C14.1724 23.2268 14.9809 23.014 15.8033 23.014C16.6257 23.014 17.4341 23.2268 18.1499 23.6317C19.3 24.2893 20.6018 24.6352 21.9266 24.6352C23.2514 24.6352 24.5532 24.2893 25.7033 23.6317C26.4191 23.2268 27.2275 23.014 28.0499 23.014C28.8723 23.014 29.6808 23.2268 30.3966 23.6317C31.5584 24.2957 32.8717 24.6493 34.2099 24.6583C35.5027 24.6557 36.7704 24.3007 37.8766 23.6317C38.2001 23.4447 38.5447 23.2969 38.9033 23.1917C39.37 23.0555 39.7636 22.7395 39.9974 22.3132C40.2312 21.8869 40.2861 21.3851 40.1499 20.9183C40.0138 20.4516 39.6978 20.058 39.2715 19.8242C38.8451 19.5904 38.3434 19.5355 37.8766 19.6717H37.9866Z" fill="black" fill-opacity="0.8"/>
</svg>
